<?xml version="1.0" encoding="utf-8"?>
<!-- Generator: Adobe Illustrator 25.0.0, SVG Export Plug-In . SVG Version: 6.00 Build 0)  -->
<svg version="1.1" id="bc5931ba-f1a9-4602-8014-6ae1094ba0b9"
	 xmlns="http://www.w3.org/2000/svg" xmlns:xlink="http://www.w3.org/1999/xlink" x="0px" y="0px" viewBox="0 0 662.9 394.9"
	 style="enable-background:new 0 0 662.9 394.9;" xml:space="preserve">
<style type="text/css">
	.st0{fill:#4589FF;stroke:#4589FF;stroke-miterlimit:10;}
	.st1{opacity:0.2;}
	.st2{fill:#FFFFFF;}
	.st3{fill:none;stroke:#4589FF;stroke-miterlimit:10;}
	.st4{fill:#4589FF;}
	.st5{fill:#FFFFFF;stroke:#DDE1E6;stroke-miterlimit:10;}
	.st6{fill:#FD783D;}
	.st7{fill:#FDA578;}
	.st8{fill:none;}
	.st9{fill:#1CB3A0;}
	.st10{fill:#4AD5C3;}
	.st11{fill:#FFFFFF;stroke:#DDE1E6;stroke-miterlimit:10.0003;}
	.st12{fill:#2E3737;}
	.st13{fill:#586565;}
	.st14{fill:#FCE77F;}
	.st15{fill:#FCD432;}
	.st16{fill:#030506;}
	.st17{fill:#3D4747;}
	.st18{fill:#975AD1;}
	.st19{fill:#FC42A0;}
	.st20{fill:#64BC46;}
	.st21{clip-path:url(#SVGID_2_);}
	.st22{clip-path:url(#SVGID_4_);}
	.st23{fill:#243238;}
	.st24{clip-path:url(#SVGID_6_);}
	.st25{fill:#3B4B54;}
	.st26{clip-path:url(#SVGID_8_);}
	.st27{fill:#0883A5;}
	.st28{clip-path:url(#SVGID_10_);}
	.st29{fill:#00AED1;}
	.st30{clip-path:url(#SVGID_12_);}
	.st31{fill:#027C68;}
	.st32{clip-path:url(#SVGID_14_);}
	.st33{fill:#00B199;}
	.st34{fill:#0F6FFF;}
	.st35{clip-path:url(#SVGID_16_);}
	.st36{clip-path:url(#SVGID_18_);fill:#243238;}
	.st37{clip-path:url(#SVGID_20_);fill:#3B4B54;}
	.st38{clip-path:url(#SVGID_22_);fill:#0883A5;}
	.st39{clip-path:url(#SVGID_24_);fill:#00AED1;}
	.st40{clip-path:url(#SVGID_26_);fill:#027C68;}
	.st41{clip-path:url(#SVGID_28_);fill:#00B199;}
	.st42{clip-path:url(#SVGID_30_);}
	.st43{clip-path:url(#SVGID_32_);fill:#243238;}
	.st44{clip-path:url(#SVGID_34_);fill:#3B4B54;}
	.st45{clip-path:url(#SVGID_36_);fill:#0883A5;}
	.st46{clip-path:url(#SVGID_38_);fill:#00AED1;}
	.st47{clip-path:url(#SVGID_40_);fill:#027C68;}
	.st48{clip-path:url(#SVGID_42_);fill:#00B199;}
	.st49{clip-path:url(#SVGID_44_);}
	.st50{clip-path:url(#SVGID_46_);fill:#243238;}
	.st51{clip-path:url(#SVGID_48_);fill:#3B4B54;}
	.st52{clip-path:url(#SVGID_50_);fill:#0883A5;}
	.st53{clip-path:url(#SVGID_52_);fill:#00AED1;}
	.st54{clip-path:url(#SVGID_54_);fill:#027C68;}
	.st55{clip-path:url(#SVGID_56_);fill:#00B199;}
	.st56{fill:#DDE0E4;}
	.st57{fill:#5291F3;}
	.st58{fill:#1B4166;}
	.st59{fill:#4CABCC;}
	.st60{fill:#94C24D;}
	.st61{font-family:'IBMPlexSans-Bold';}
	.st62{font-size:14px;}
	.st63{font-family:'IBMPlexSans-Medium';}
	.st64{fill:none;stroke:#4589FF;stroke-width:2;stroke-miterlimit:10;}
</style>
<rect x="53.7" y="184.8" class="st0" width="496.8" height="4"/>
<g class="st1">
	<path class="st2" d="M519.2,250.8h-70.1c-3.7,0-6.7-2.2-6.7-5v-92.6c0-2.7,3-5,6.7-5h70.1c3.7,0,6.7,2.2,6.7,5v92.6
		C525.8,248.6,522.8,250.8,519.2,250.8z"/>
	<path class="st3" d="M519.2,250.8h-70.1c-3.7,0-6.7-2.2-6.7-5v-92.6c0-2.7,3-5,6.7-5h70.1c3.7,0,6.7,2.2,6.7,5v92.6
		C525.8,248.6,522.8,250.8,519.2,250.8z"/>
	<path class="st3" d="M519.2,250.8h-70.1c-3.7,0-6.7-2.2-6.7-5v-92.6c0-2.7,3-5,6.7-5h70.1c3.7,0,6.7,2.2,6.7,5v92.6
		C525.8,248.6,522.8,250.8,519.2,250.8z"/>
	<path class="st4" d="M519.2,250.8h-70.1c-3.7,0-6.7-2.2-6.7-5v-92.6c0-2.7,3-5,6.7-5h70.1c3.7,0,6.7,2.2,6.7,5v92.6
		C525.8,248.6,522.8,250.8,519.2,250.8z"/>
</g>
<g class="st1">
	<path class="st2" d="M288.6,251.8h-67.9c-3.6,0-6.5-2.3-6.5-5V153c0-2.8,2.9-5,6.5-5h67.9c3.6,0,6.5,2.3,6.5,5v93.7
		C295.1,249.6,292.2,251.8,288.6,251.8z"/>
	<path class="st3" d="M288.6,251.8h-67.9c-3.6,0-6.5-2.3-6.5-5V153c0-2.8,2.9-5,6.5-5h67.9c3.6,0,6.5,2.3,6.5,5v93.7
		C295.1,249.6,292.2,251.8,288.6,251.8z"/>
	<path class="st3" d="M288.6,251.8h-67.9c-3.6,0-6.5-2.3-6.5-5V153c0-2.8,2.9-5,6.5-5h67.9c3.6,0,6.5,2.3,6.5,5v93.7
		C295.1,249.6,292.2,251.8,288.6,251.8z"/>
	<path class="st4" d="M288.6,251.8h-67.9c-3.6,0-6.5-2.3-6.5-5V153c0-2.8,2.9-5,6.5-5h67.9c3.6,0,6.5,2.3,6.5,5v93.7
		C295.1,249.6,292.2,251.8,288.6,251.8z"/>
</g>
<circle class="st5" cx="253.4" cy="187.8" r="32"/>
<g>
	<g id="e50c9f8a-7056-4ac8-9aaa-9197ac600f90">
		<g>
			<path class="st6" d="M269.7,191c-1.7,7.9-8.6,13.6-16.7,13.6c-5.1,0.1-10-2.3-13-6.5l9-9.3l1.1,1.1l-1.1-1.1l0,0l1.3,1.6l2.1-7.4
				l-7.2,2.2l1.3,1.4l-2.1,2.4l-6.1,6.3c-1.2-2.1-1.9-4.4-2.1-6.8l-2.6-3.8c-0.2,0.9-0.3,1.8-0.3,2.7c0,11.2,9,20.4,19.9,20.4
				c8.5,0,16.1-5.5,18.8-13.6L269.7,191z"/>
			<polyline class="st7" points="238.2,195.3 246.7,186.6 245.3,185.3 252.5,183.1 240,195.6 			"/>
		</g>
		<g>
			<path class="st7" d="M253,207.6c8.5,0,16.1-5.5,18.8-13.6l-1.3-1.6c-2.1,7.9-9.3,13.9-17.5,13.9c-10.1,0-18.3-8.4-18.3-18.8v-0.8
				l-1.1-1.9c-0.2,0.9-0.3,1.8-0.3,2.7C233.2,198.4,242,207.4,253,207.6L253,207.6z"/>
			<line class="st8" x1="238.2" y1="195.6" x2="240" y2="196.1"/>
		</g>
	</g>
	<g id="bd9ade52-cb78-47a7-9bed-ac53ee44fc1a">
		<g>
			<path class="st9" d="M236.9,184.5c1.7-7.9,8.6-13.6,16.7-13.6c5.1-0.1,10,2.3,13,6.5l-9,9.3l-0.8-1.1l1.1,1.1l0,0l-1.6-1.6
				l-2.1,7.4l7.2-2.2l-1.3-1.4l2.4-2.4l6.1-6.3c1.1,2.1,1.7,4.4,1.9,6.8l2.6,3.8c0.2-0.8,0.3-1.6,0.3-2.4c0-11.2-9-20.4-19.9-20.4
				c-8.5,0.1-15.9,5.6-18.6,13.6L236.9,184.5z"/>
			<polyline class="st10" points="266.5,177.4 257.5,186.6 256.2,185 254.1,192.3 266.3,179.8 			"/>
		</g>
		<g>
			<path class="st10" d="M253.6,167.8c-8.5,0-16.1,5.5-18.8,13.6l1.3,1.6c2.1-7.9,9.3-13.9,17.5-13.9c10.1,0,18.3,8.4,18.3,18.8v0.8
				l1.3,1.9c0.2-0.8,0.3-1.6,0.3-2.4C273.2,176.8,264.4,167.8,253.6,167.8z"/>
			<line class="st8" x1="268.4" y1="179.8" x2="266.5" y2="179.3"/>
		</g>
	</g>
</g>
<circle class="st5" cx="148.5" cy="48.8" r="32"/>
<g>
	<g id="a13e9ec6-71ca-4fc2-ac45-93d51581a157">
		<g>
			<path class="st6" d="M164.9,51.9c-1.7,7.9-8.6,13.6-16.7,13.6c-5.1,0.1-10-2.3-13-6.5l9-9.3l1.1,1.1l-1.1-1.1l0,0l1.3,1.6
				l2.1-7.3l-7.2,2.2l1.3,1.4l-2.1,2.4l-6.1,6.3c-1.2-2.1-1.9-4.4-2.1-6.8l-2.6-3.8c-0.2,0.9-0.3,1.8-0.3,2.7
				c0,11.2,9,20.4,19.9,20.4c8.5,0,16.1-5.5,18.8-13.6L164.9,51.9z"/>
			<polyline class="st7" points="133.3,56.3 141.8,47.6 140.5,46.2 147.7,44.1 135.2,56.6 			"/>
		</g>
		<g>
			<path class="st7" d="M148.2,68.6c8.5,0,16.1-5.5,18.8-13.6l-1.3-1.6c-2.1,7.9-9.3,13.9-17.5,13.9c-10.1,0-18.3-8.5-18.3-18.8
				v-0.8l-1.1-1.9c-0.2,0.9-0.3,1.8-0.3,2.7c-0.2,10.9,8.5,20,19.5,20.2C148.1,68.6,148.1,68.6,148.2,68.6z"/>
			<line class="st8" x1="133.3" y1="56.6" x2="135.2" y2="57.1"/>
		</g>
	</g>
	<g id="bcdd3e53-07cb-4213-af7c-59a55cc97fe0">
		<g>
			<path class="st9" d="M132,45.4c1.7-7.9,8.6-13.6,16.7-13.6c5.1-0.1,10,2.3,13,6.5l-9,9.3l-0.8-1.1l1.1,1.1l0,0l-1.6-1.6l-2.1,7.4
				l7.2-2.2l-1.3-1.4l2.4-2.4l6.1-6.3c1.1,2.1,1.7,4.4,1.9,6.8l2.6,3.8c0.2-0.8,0.3-1.6,0.3-2.4c0-11.2-9-20.4-19.9-20.4
				c-8.5,0.1-15.9,5.6-18.5,13.6L132,45.4z"/>
			<polyline class="st10" points="161.7,38.3 152.7,47.6 151.4,46 149.3,53.3 161.4,40.8 			"/>
		</g>
		<g>
			<path class="st10" d="M148.7,28.8c-8.5,0-16.1,5.5-18.8,13.6l1.3,1.6c2.1-7.9,9.3-13.9,17.5-13.9c10.1,0,18.3,8.5,18.3,18.8v0.8
				l1.3,1.9c0.2-0.8,0.3-1.6,0.3-2.4C168.3,37.8,159.6,28.8,148.7,28.8z"/>
			<line class="st8" x1="163.6" y1="40.8" x2="161.7" y2="40.2"/>
		</g>
	</g>
</g>
<circle class="st5" cx="484.7" cy="187.8" r="32"/>
<g>
	<g id="bd663009-3b89-4b32-b2a2-f74f4e11d331">
		<g>
			<path class="st6" d="M501,190.9c-1.7,7.9-8.6,13.6-16.7,13.6c-5.1,0.1-10-2.3-13-6.5l9-9.3l1.1,1.1l-1.1-1.1l0,0l1.3,1.6l2.1-7.4
				l-7.2,2.2l1.3,1.4l-2.1,2.4l-6.1,6.3c-1.2-2.1-1.9-4.4-2.1-6.8l-2.6-3.8c-0.2,0.9-0.3,1.8-0.3,2.7c0,11.2,9,20.4,19.9,20.4
				c8.5,0,16.1-5.5,18.8-13.6L501,190.9z"/>
			<polyline class="st7" points="469.5,195.3 478,186.6 476.7,185.2 483.8,183.1 471.4,195.6 			"/>
		</g>
		<g>
			<path class="st7" d="M484.4,207.6c8.5,0,16.1-5.5,18.8-13.6l-1.3-1.6c-2.1,7.9-9.3,13.9-17.5,13.9c-10.1,0-18.3-8.4-18.3-18.8
				v-0.8l-1.1-1.9c-0.2,0.9-0.3,1.8-0.3,2.7C464.6,198.4,473.3,207.4,484.4,207.6C484.3,207.6,484.3,207.6,484.4,207.6z"/>
			<line class="st8" x1="469.5" y1="195.6" x2="471.4" y2="196.1"/>
		</g>
	</g>
	<g id="beed8336-5e67-4a13-b019-6ba49773948b">
		<g>
			<path class="st9" d="M468.2,184.4c1.7-7.9,8.6-13.6,16.7-13.6c5.1-0.1,10,2.3,13,6.5l-9,9.3l-0.8-1.1l1.1,1.1l0,0l-1.6-1.6
				l-2.1,7.4l7.2-2.2l-1.3-1.4l2.4-2.4l6.1-6.3c1.1,2.1,1.7,4.4,1.9,6.8l2.6,3.8c0.2-0.8,0.3-1.6,0.3-2.4c0-11.2-9-20.4-19.9-20.4
				c-8.5,0.1-15.9,5.6-18.6,13.6L468.2,184.4z"/>
			<polyline class="st10" points="497.9,177.3 488.9,186.6 487.5,185 485.4,192.3 497.6,179.8 			"/>
		</g>
		<g>
			<path class="st10" d="M484.9,167.8c-8.5,0-16.1,5.5-18.8,13.6l1.3,1.6c2.1-7.9,9.3-13.9,17.5-13.9c10.1,0,18.3,8.4,18.3,18.8v0.8
				l1.3,1.9c0.2-0.8,0.3-1.6,0.3-2.4C504.5,176.8,495.7,167.8,484.9,167.8z"/>
			<line class="st8" x1="499.7" y1="179.8" x2="497.9" y2="179.2"/>
		</g>
	</g>
</g>
<circle class="st5" cx="148.5" cy="187.8" r="32"/>
<circle class="st5" cx="376.6" cy="187.8" r="32"/>
<circle class="st5" cx="48.6" cy="187.8" r="32"/>
<circle class="st5" cx="590.4" cy="187.8" r="32"/>
<ellipse class="st11" cx="254.1" cy="48.7" rx="32" ry="32"/>
<circle class="st5" cx="376.6" cy="48.8" r="32"/>
<g>
	<path class="st12" d="M380.4,59.9l-7.6,0.5c-0.7,0-1.3-0.5-1.4-1.1l0,0c0-0.7,0.5-1.3,1.2-1.3l7.6-0.5c0.7,0,1.3,0.4,1.4,1.1l0,0
		C381.6,59.2,381.1,59.8,380.4,59.9L380.4,59.9z"/>
	<path class="st12" d="M380.4,63.4l-7.6,0.5c-0.7,0-1.3-0.5-1.4-1.1l0,0c0-0.7,0.5-1.3,1.2-1.3l7.6-0.5c0.7,0,1.3,0.5,1.4,1.1l0,0
		C381.6,62.8,381.1,63.4,380.4,63.4z"/>
	<path class="st13" d="M372.7,65.1h-0.1c0.2,2.2,2.2,3.9,4.5,3.6c2.1-0.2,3.7-2,3.6-4.1v-0.1L372.7,65.1z"/>
	<g>
		<path class="st14" d="M388.6,40.4c-0.2-6.6-5.8-11.8-12.4-11.6c-6.3,0.2-11.4,5.3-11.6,11.6c0,2.9,1.1,5.6,3,7.7
			c1.9,2.3,2.8,3,2.8,6.8v0.3c0,0.6,0.5,1,1,1h10.2c0.6,0,1-0.4,1-1V55c0-4,1-4.6,3.1-7.2l0,0C387.6,45.7,388.6,43.1,388.6,40.4z"/>
		<path class="st14" d="M385.9,47.8l0.1-0.2C386,47.7,385.9,47.7,385.9,47.8z"/>
	</g>
	<path class="st15" d="M388.6,40.4c-0.1-6.5-5.5-11.7-12-11.6v27.4h5.1c0.6,0,1-0.4,1-1V55c0-4,1-4.6,3.1-7.2l0,0
		C387.6,45.7,388.6,43.1,388.6,40.4z"/>
	<path class="st16" d="M381.6,62.4V62c-0.1-0.6-0.5-1-1.1-0.9l-3.9,0.3v2.4l4.1-0.3C381.2,63.4,381.6,62.9,381.6,62.4z"/>
	<path class="st16" d="M381.6,58.8v-0.4c-0.1-0.6-0.5-1-1.1-0.9l-3.9,0.3v2.4l4.1-0.3C381.2,59.9,381.6,59.4,381.6,58.8L381.6,58.8z
		"/>
	<path class="st17" d="M380.6,64.6l-4,0.3v3.9C378.8,68.8,380.7,66.9,380.6,64.6L380.6,64.6L380.6,64.6z"/>
	<ellipse class="st18" cx="376.6" cy="40.6" rx="7.5" ry="7.2"/>
	<path class="st19" d="M376.6,33.3v14.5c4,0.1,7.3-3,7.4-7s-3-7.3-7-7.4C376.9,33.3,376.7,33.3,376.6,33.3L376.6,33.3z"/>
	<path class="st20" d="M382.3,45.2c1.4-1.6,2-3.8,1.6-5.9l-7.3,1.3l-4.8,5.5C375,48.7,379.6,48.3,382.3,45.2z"/>
</g>
<g>
	<rect x="148" y="106.6" class="st4" width="1" height="41.4"/>
	<polyline class="st3" points="154.5,140.7 148.5,148 142.5,140.7 	"/>
	<polyline class="st3" points="154.5,113 148.5,106.6 142.5,113 	"/>
</g>
<rect x="485.6" y="48.8" class="st4" width="1" height="99.2"/>
<rect x="322.6" y="48.8" class="st4" width="1" height="114"/>
<rect x="415.6" y="48.8" class="st4" width="70" height="1"/>
<polyline class="st3" points="421.6,55.3 415.6,49.3 421.6,43.3 "/>
<rect x="322.6" y="48.8" class="st4" width="16" height="1"/>
<rect x="295.1" y="161.8" class="st4" width="28.5" height="1"/>
<polyline class="st3" points="332.6,55.3 338.6,49.3 332.6,43.3 "/>
<polyline class="st3" points="258.1,258.8 252.1,252.8 246.1,258.8 "/>
<rect x="251.6" y="305.8" class="st4" width="166" height="1"/>
<polyline class="st3" points="480.1,256.8 486.1,250.8 492.1,256.8 "/>
<rect x="485.6" y="250.8" class="st4" width="1" height="55.9"/>
<rect x="417.6" y="305.8" class="st4" width="69" height="0.9"/>
<g>
	<rect x="189.1" y="48.3" class="st4" width="24" height="1"/>
	<polyline class="st3" points="207.1,54.8 213.1,48.8 207.1,42.8 	"/>
</g>
<circle class="st5" cx="422.1" cy="306.8" r="32"/>
<g>
	<g>
		<g>
			<g>
				<g>
					<g>
						<g>
							<defs>
								<rect id="SVGID_1_" x="28.6" y="167.8" width="40" height="40"/>
							</defs>
							<clipPath id="SVGID_2_">
								<use xlink:href="#SVGID_1_"  style="overflow:visible;"/>
							</clipPath>
							<g class="st21">
								<g>
									<g>
										<g>
											<g>
												<g>
													<g>
														<g>
															<g>
																<defs>
																	<rect id="SVGID_3_" x="-155.9" y="479.3" width="40" height="40"/>
																</defs>
																<clipPath id="SVGID_4_">
																	<use xlink:href="#SVGID_3_"  style="overflow:visible;"/>
																</clipPath>
																<g class="st22">
																	<path class="st23" d="M-144,501.2c-0.1-0.3-0.1-0.7-0.2-1c0-0.1,0-0.1,0-0.2l0,0c-0.1-0.9,0-1.7,0.2-2.6l0,0
																		c0-0.1,0-0.1,0-0.2v-0.1V497c0,0,0-0.1,0.1-0.2l0,0c0.3-0.9,0.7-1.7,1.2-2.5c0,0,0,0,0-0.1s0.1-0.1,0.1-0.2
																		l0.1-0.1l0.1-0.1c0.2-0.3,0.4-0.5,0.7-0.7c-1.7-3.3-1.6-7.3,0.2-10.6c-1.1,0.4-2.2,0.8-3.2,1.4l0,0
																		c-0.1,0-0.2,0.1-0.3,0.2h-0.1l0,0c0,0,0,0-0.1,0c0,0-0.1,0-0.1,0.1c-0.1,0-0.1,0.1-0.2,0.1c-0.1,0-0.1,0.1-0.2,0.1
																		l-0.2,0.1c-0.1,0-0.1,0.1-0.2,0.1c-0.1,0-0.1,0.1-0.2,0.1c-0.1,0-0.1,0.1-0.2,0.1c-0.1,0-0.1,0.1-0.2,0.1
																		c-0.1,0-0.1,0.1-0.1,0.1c-0.1,0-0.1,0.1-0.2,0.1l-0.1,0.1l-0.3,0.2c-0.1,0-0.1,0.1-0.1,0.1s-0.1,0.1-0.2,0.1
																		c-0.1,0-0.1,0.1-0.1,0.1c-0.1,0-0.1,0.1-0.1,0.1l-0.1,0.1c0,0.1-0.1,0.1-0.2,0.1c-0.1,0-0.1,0.1-0.1,0.1l-0.1,0.1
																		l-0.1,0.1l-0.1,0.1c-0.1,0.1-0.1,0.1-0.1,0.1l-0.1,0.1c-0.1,0-0.1,0.1-0.1,0.1s-0.1,0.1-0.2,0.2
																		c-0.1,0.1-0.2,0.2-0.2,0.3l-0.1,0.1c-0.1,0.1-0.1,0.1-0.1,0.2l-0.1,0.1c0,0.1-0.1,0.1-0.1,0.2l-0.1,0.1
																		c0,0.1-0.1,0.1-0.1,0.2l-0.1,0.1c0,0,0,0.1-0.1,0.1c0,0.1-0.1,0.1-0.1,0.1l-0.1,0.1c0,0.1-0.1,0.1-0.1,0.2
																		l-0.1,0.1l0,0c-0.1,0.1-0.1,0.1-0.1,0.2c0,0,0,0.1-0.1,0.1c-0.1,0.1-0.2,0.2-0.2,0.4c-0.1,0.1-0.1,0.2-0.2,0.4
																		c0,0,0,0.1-0.1,0.1c-0.1,0.1-0.1,0.2-0.1,0.2s0,0.1-0.1,0.1c0,0.1-0.1,0.2-0.1,0.2c0,0.1,0,0.1-0.1,0.1
																		c0,0.1-0.1,0.1-0.1,0.2s-0.1,0.1-0.1,0.1c0,0.1-0.1,0.2-0.1,0.2s0,0.1-0.1,0.1c0,0.1-0.1,0.2-0.1,0.3
																		c0,0,0,0.1-0.1,0.1c0,0.1-0.1,0.3-0.1,0.4l0,0l-0.1,0.4v0.1c0,0.1-0.1,0.2-0.1,0.3c0,0.1,0,0.1-0.1,0.1l-0.1,0.2
																		l0,0v0.1v0.1c0,0.1,0,0.1-0.1,0.2l0,0v0.1l-0.1,0.6l0,0C-151.1,498.9-147.7,501-144,501.2"/>
																</g>
															</g>
														</g>
													</g>
												</g>
											</g>
										</g>
									</g>
									<g>
										<g>
											<g>
												<g>
													<g>
														<g>
															<g>
																<defs>
																	<rect id="SVGID_5_" x="-155.9" y="479.3" width="40" height="40"/>
																</defs>
																<clipPath id="SVGID_6_">
																	<use xlink:href="#SVGID_5_"  style="overflow:visible;"/>
																</clipPath>
																<g class="st24">
																	<path class="st25" d="M-138.2,507.2c-0.3-0.1-0.6-0.2-0.9-0.3c-0.1,0-0.1,0-0.2-0.1l0,0c-0.8-0.4-1.5-0.8-2.1-1.4
																		l0,0l-0.1-0.1l-0.1-0.1l-0.1-0.1l-0.1-0.1l0,0c-0.6-0.7-1.1-1.5-1.5-2.3l0,0c0-0.1-0.1-0.1-0.1-0.2v-0.1v-0.1
																		c-0.1-0.3-0.2-0.6-0.3-1c-3.7-0.2-7.2-2.2-9.1-5.4c-0.2,1.1-0.4,2.3-0.4,3.5v0.6c0,0.1,0,0.1,0,0.2s0,0.1,0,0.2
																		s0,0.1,0,0.2s0,0.1,0,0.2s0,0.1,0,0.2s0,0.1,0,0.2s0,0.1,0,0.2s0,0.1,0,0.2s0,0.1,0,0.2s0,0.1,0,0.2s0,0.2,0.1,0.4
																		c0,0,0,0.1,0,0.2s0,0.1,0,0.2s0,0.1,0,0.2s0,0.1,0,0.2s0,0.1,0,0.2s0,0.1,0,0.2s0,0.1,0,0.2s0,0.1,0.1,0.2
																		c0,0.1,0,0.1,0.1,0.2c0,0.1,0,0.1,0.1,0.2c0,0.1,0,0.1,0,0.2s0,0.1,0.1,0.2s0,0.1,0.1,0.2c0,0.1,0,0.1,0.1,0.2
																		c0,0.1,0.1,0.2,0.1,0.3c0,0,0,0.1,0.1,0.2c0,0.1,0,0.1,0.1,0.2c0,0.1,0,0.1,0.1,0.2c0,0.1,0,0.1,0.1,0.2
																		c0,0,0.1,0.1,0.1,0.2s0.1,0.1,0.1,0.2s0.1,0.1,0.1,0.2c0,0,0,0.1,0.1,0.1c0,0.1,0.1,0.1,0.1,0.2s0.1,0.1,0.1,0.2
																		s0.1,0.2,0.1,0.2l0.1,0.1c0,0,0,0,0,0.1s0.1,0.1,0.1,0.2l0.1,0.1c0.1,0.1,0.1,0.2,0.2,0.4c0.1,0.1,0.1,0.2,0.2,0.4
																		l0.1,0.1l0.1,0.2l0.1,0.1c0,0.1,0.1,0.1,0.1,0.2l0.1,0.1c0,0.1,0.1,0.1,0.1,0.2l0.1,0.1c0.1,0.1,0.1,0.1,0.2,0.2
																		l0.1,0.1c0.1,0.1,0.1,0.1,0.2,0.2l0.1,0.1c0.1,0.1,0.2,0.2,0.3,0.3l0,0c0.1,0.1,0.2,0.2,0.2,0.3l0.1,0.1
																		c0.1,0.1,0.1,0.1,0.2,0.2l0.1,0.1c0,0.1,0.1,0.1,0.1,0.1l0,0c0,0,725.9-725.6,0.1,0.1l0.2,0.2l0,0
																		c0,0,0.1,0,0.1,0.1c0.1,0.1,0.3,0.3,0.5,0.4l0,0C-143.8,512.3-140.3,510.3-138.2,507.2"/>
																</g>
															</g>
														</g>
													</g>
												</g>
											</g>
										</g>
									</g>
									<g>
										<g>
											<g>
												<g>
													<g>
														<g>
															<g>
																<defs>
																	<rect id="SVGID_7_" x="-155.9" y="479.3" width="40" height="40"/>
																</defs>
																<clipPath id="SVGID_8_">
																	<use xlink:href="#SVGID_7_"  style="overflow:visible;"/>
																</clipPath>
																<g class="st26">
																	<path class="st27" d="M-130.2,505.3c-0.2,0.2-0.5,0.4-0.8,0.6c-0.1,0-0.1,0.1-0.2,0.1l0,0
																		c-0.7,0.5-1.5,0.9-2.3,1.1l0,0c-0.1,0-0.1,0-0.2,0h-0.1h-0.1c-0.1,0-0.1,0-0.2,0l0,0c-0.9,0.2-1.8,0.3-2.8,0.2
																		c0,0,0,0-0.1,0h-0.2h-0.1h-0.1c-0.3-0.1-0.6-0.1-1-0.2c-2,3.1-5.5,5.1-9.3,5.1c0.9,0.8,1.8,1.5,2.8,2l0,0
																		c0.1,0,0.2,0.1,0.3,0.1c0,0,0,0,0.1,0l0,0c0,0,0,0,0.1,0h0.1c0.1,0,0.1,0.1,0.2,0.1c0.1,0,0.1,0.1,0.2,0.1
																		c0.1,0,0.1,0.1,0.2,0.1s0.1,0.1,0.2,0.1s0.1,0.1,0.2,0.1s0.1,0,0.2,0.1c0.1,0,0.1,0.1,0.2,0.1c0,0,0.1,0,0.2,0.1
																		c0.1,0,0.1,0.1,0.2,0.1c0.1,0,0.1,0,0.2,0.1c0.1,0,0.2,0.1,0.3,0.1s0.1,0,0.2,0.1c0.1,0,0.1,0,0.2,0.1l0.2,0.1
																		c0.1,0,0.1,0,0.2,0.1c0.1,0,0.1,0,0.2,0.1c0.1,0,0.1,0,0.2,0.1c0.1,0,0.1,0,0.2,0c0.1,0,0.1,0,0.2,0.1
																		c0.1,0,0.1,0,0.2,0c0.1,0,0.1,0,0.2,0c0.1,0,0.1,0,0.2,0c0.1,0,0.1,0,0.2,0c0.1,0,0.1,0,0.2,0c0.1,0,0.1,0,0.2,0.1
																		c0.1,0,0.2,0,0.4,0.1h0.2c0.1,0,0.1,0,0.2,0c0.1,0,0.1,0,0.2,0c0.1,0,0.1,0,0.2,0c0.1,0,0.1,0,0.2,0
																		c0.1,0,0.1,0,0.2,0c0.1,0,0.1,0,0.2,0h0.1c0.1,0,0.1,0,0.2,0c0.1,0,0.1,0,0.2,0c0.1,0,0.2,0,0.3,0s0.1,0,0.1,0h0.1
																		c0.1,0,0.2,0,0.2,0h0.1c0.1,0,0.3,0,0.4,0s0.3,0,0.4,0h0.1c0.1,0,0.2,0,0.3,0c0,0,0.1,0,0.2,0c0.1,0,0.2,0,0.3,0
																		c0,0,0.1,0,0.2,0c0.1,0,0.2,0,0.2,0s0.1,0,0.2,0h0.2c0.1,0,0.1,0,0.2,0c0.1,0,0.2,0,0.3,0h0.1c0.1,0,0.3,0,0.4-0.1
																		l0,0c0.1,0,0.2-0.1,0.4-0.1h0.1c0.1,0,0.2,0,0.3-0.1c0.1,0,0.1,0,0.2,0c0.1,0,0.1,0,0.2,0c0,0,0,0,0.1,0
																		s0.1,0,0.1,0h0.1l0.2-0.1l0,0h0.1c0.2-0.1,0.4-0.1,0.6-0.2l0,0C-128.6,512.6-128.5,508.7-130.2,505.3"/>
																</g>
															</g>
														</g>
													</g>
												</g>
											</g>
										</g>
									</g>
									<g>
										<g>
											<g>
												<g>
													<g>
														<g>
															<g>
																<defs>
																	<rect id="SVGID_9_" x="-155.9" y="479.3" width="40" height="40"/>
																</defs>
																<clipPath id="SVGID_10_">
																	<use xlink:href="#SVGID_9_"  style="overflow:visible;"/>
																</clipPath>
																<g class="st28">
																	<path class="st29" d="M-127.8,497.3c0.1,0.3,0.1,0.7,0.2,1c0,0.1,0,0.1,0,0.2l0,0c0.1,0.9,0,1.7-0.2,2.6l0,0
																		c0,0.1,0,0.1,0,0.2v0.1v0.1c0,0.1,0,0.1,0,0.2l0,0c-0.3,0.9-0.7,1.7-1.2,2.5l0,0c0,0.1-0.1,0.1-0.1,0.2l-0.1,0.1
																		c0,0-0.1,0-0.1,0.1c-0.2,0.3-0.4,0.5-0.7,0.7c1.7,3.3,1.6,7.3-0.2,10.6c1.1-0.4,2.2-0.8,3.2-1.4l0,0
																		c0.1-0.1,0.2-0.1,0.3-0.2c0,0,0,0,0.1,0l0,0h0.1h0.1c0.1,0,0.1-0.1,0.2-0.1s0.1-0.1,0.1-0.1l0.2-0.1
																		c0.1,0,0.1-0.1,0.1-0.1c0.1,0,0.1-0.1,0.2-0.1s0.1-0.1,0.2-0.1s0.1-0.1,0.2-0.1l0.1-0.1c0.1,0,0.1-0.1,0.2-0.1
																		l0.1-0.1l0.3-0.2c0.1,0,0.1-0.1,0.1-0.1s0.1-0.1,0.2-0.1s0.1-0.1,0.1-0.1c0.1-0.1,0.1-0.1,0.2-0.1s0.1-0.1,0.1-0.1
																		c0.1-0.1,0.1-0.1,0.1-0.1l0.1-0.1l0.1-0.1l0.2-0.1l0.1-0.1c0-0.1,0.1-0.1,0.1-0.1l0.1-0.1c0.1,0,0.1-0.1,0.1-0.1
																		s0.1-0.1,0.2-0.2l0.2-0.3l0.1-0.1c0.1-0.1,0.1-0.1,0.1-0.2l0.1-0.1c0-0.1,0.1-0.1,0.1-0.2l0.1-0.1
																		c0-0.1,0.1-0.1,0.1-0.2l0.1-0.1l0.1-0.1c0-0.1,0.1-0.1,0.1-0.1l0.1-0.1c0-0.1,0.1-0.1,0.1-0.2l0.1-0.1l0,0
																		c0-0.1,0.1-0.1,0.1-0.2c0,0,0-0.1,0.1-0.1c0.1-0.1,0.2-0.2,0.2-0.4s0.1-0.2,0.2-0.4c0,0,0-0.1,0.1-0.1
																		c0-0.1,0.1-0.2,0.1-0.2s0-0.1,0.1-0.1c0-0.1,0.1-0.2,0.1-0.2c0-0.1,0-0.1,0.1-0.1c0-0.1,0.1-0.1,0.1-0.2
																		s0.1-0.1,0.1-0.1c0-0.1,0.1-0.2,0.1-0.2s0-0.1,0.1-0.1c0-0.1,0.1-0.2,0.1-0.3c0,0,0-0.1,0.1-0.1
																		c0.1-0.1,0.1-0.3,0.1-0.4l0,0c0-0.1,0.1-0.2,0.1-0.4c0,0,0-0.1,0.1-0.1c0-0.1,0.1-0.2,0.1-0.3c0-0.1,0-0.1,0.1-0.1
																		l0.1-0.2l0,0v-0.1v-0.1c0-0.1,0-0.1,0.1-0.2l0,0v-0.1c0.1-0.2,0.1-0.4,0.1-0.6l0,0
																		C-120.7,499.6-124.1,497.5-127.8,497.3"/>
																</g>
															</g>
														</g>
													</g>
												</g>
											</g>
										</g>
									</g>
									<g>
										<g>
											<g>
												<g>
													<g>
														<g>
															<g>
																<defs>
																	<rect id="SVGID_11_" x="-155.9" y="479.3" width="40" height="40"/>
																</defs>
																<clipPath id="SVGID_12_">
																	<use xlink:href="#SVGID_11_"  style="overflow:visible;"/>
																</clipPath>
																<g class="st30">
																	<path class="st31" d="M-133.5,491.3c0.3,0.1,0.6,0.2,0.9,0.3c0.1,0,0.1,0,0.2,0.1l0,0c0.8,0.4,1.5,0.9,2.1,1.4l0,0
																		l0.1,0.1l0.1,0.1l0.1,0.1l0.1,0.1l0,0c0.6,0.7,1.1,1.5,1.5,2.3l0,0c0,0.1,0.1,0.1,0.1,0.2c0,0,0,0.1,0.1,0.1v0.1
																		c0.1,0.3,0.2,0.6,0.3,1c3.7,0.2,7.2,2.2,9.1,5.5c0.2-1.1,0.4-2.3,0.4-3.5v-0.6c0-0.1,0-0.1,0-0.2s0-0.1,0-0.2
																		s0-0.1,0-0.2s0-0.1,0-0.2s0-0.1,0-0.2s0-0.1,0-0.2s0-0.1,0-0.2s0-0.1,0-0.2s0-0.1,0-0.2c0,0,0-0.1,0-0.2
																		s0-0.2-0.1-0.4c0-0.1,0-0.1,0-0.2s0-0.1,0-0.2s0-0.1,0-0.2s0-0.1,0-0.2s0-0.1,0-0.2s0-0.1,0-0.2s0-0.1-0.1-0.2
																		c0-0.1,0-0.1-0.1-0.2c0-0.1,0-0.1-0.1-0.2c0-0.1,0-0.1-0.1-0.2c0-0.1,0-0.1-0.1-0.2c0-0.1,0-0.1-0.1-0.2
																		s0-0.1-0.1-0.2c0-0.1,0-0.1-0.1-0.2c0-0.1-0.1-0.2-0.1-0.3c0-0.1,0-0.1-0.1-0.2c0-0.1,0-0.1-0.1-0.2
																		c0-0.1,0-0.1-0.1-0.2c0-0.1,0-0.1-0.1-0.2c0-0.1-0.1-0.1-0.1-0.2s-0.1-0.1-0.1-0.2s-0.1-0.1-0.1-0.2v-0.1
																		c0,0-0.1-0.1-0.1-0.2s-0.1-0.1-0.1-0.2s-0.1-0.2-0.1-0.2l-0.1-0.1l0,0c0-0.1-0.1-0.1-0.1-0.2c0,0,0-0.1-0.1-0.1
																		c-0.1-0.1-0.1-0.2-0.2-0.4s-0.1-0.2-0.2-0.4l-0.1-0.1l-0.2-0.2l-0.1-0.1c0-0.1-0.1-0.1-0.2-0.2l-0.1-0.1
																		c0-0.1-0.1-0.1-0.1-0.2l-0.1-0.1c-0.1-0.1-0.1-0.1-0.1-0.2l-0.1-0.1c-0.1-0.1-0.1-0.1-0.2-0.2l-0.1-0.1
																		c-0.1-0.1-0.2-0.2-0.3-0.3l0,0c-0.1-0.1-0.2-0.2-0.2-0.3l-0.1-0.1c-0.1-0.1-0.1-0.1-0.2-0.2l-0.1-0.1
																		c0-0.1-0.1-0.1-0.2-0.1l0,0l-0.1-0.1l-0.1-0.1l-0.2-0.2l0,0c0,0-0.1,0-0.1-0.1c-0.2-0.1-0.3-0.3-0.5-0.4l0,0
																		C-128,486.2-131.4,488.2-133.5,491.3"/>
																</g>
															</g>
														</g>
													</g>
												</g>
											</g>
										</g>
									</g>
									<g>
										<g>
											<g>
												<g>
													<g>
														<g>
															<g>
																<defs>
																	<rect id="SVGID_13_" x="-155.9" y="479.3" width="40" height="40"/>
																</defs>
																<clipPath id="SVGID_14_">
																	<use xlink:href="#SVGID_13_"  style="overflow:visible;"/>
																</clipPath>
																<g class="st32">
																	<path class="st33" d="M-141.6,493.2c0.2-0.2,0.5-0.4,0.8-0.6l0.1-0.1l0,0c0.7-0.5,1.5-0.9,2.3-1.1l0,0
																		c0.1,0,0.1,0,0.2,0h0.1h0.1c0,0,0.1,0,0.2,0l0,0c0.9-0.2,1.8-0.3,2.8-0.2c0,0,0,0,0.1,0h0.2h0.1h0.1
																		c0.3,0.1,0.7,0.1,1,0.2c2-3.1,5.5-5.1,9.3-5.1c-0.9-0.8-1.8-1.5-2.8-2.1l0,0c-0.1-0.1-0.2-0.1-0.3-0.1
																		c0,0,0,0-0.1,0l0,0h-0.1h-0.1c-0.1,0-0.1-0.1-0.2-0.1s-0.1,0-0.2-0.1c-0.1,0-0.1-0.1-0.2-0.1s-0.1-0.1-0.2-0.1
																		s-0.1-0.1-0.2-0.1s-0.1,0-0.2-0.1c-0.1,0-0.1-0.1-0.2-0.1c-0.1,0-0.1,0-0.2-0.1c-0.1,0-0.1-0.1-0.2-0.1
																		c0,0-0.1,0-0.2-0.1c-0.1,0-0.2-0.1-0.4-0.1c-0.1,0-0.1,0-0.2-0.1c-0.1,0-0.1,0-0.2-0.1l-0.2-0.1
																		c-0.1,0-0.1,0-0.2-0.1c-0.1,0-0.1,0-0.2-0.1c-0.1,0-0.1,0-0.2-0.1c-0.1,0-0.1,0-0.2,0c-0.1,0-0.1,0-0.2-0.1
																		c-0.1,0-0.1,0-0.2,0c-0.1,0-0.1,0-0.2-0.1c-0.1,0-0.1,0-0.2,0c-0.1,0-0.1,0-0.2,0c-0.1,0-0.1,0-0.2,0
																		c-0.1,0-0.1,0-0.2-0.1c-0.1,0-0.2,0-0.3-0.1h-0.2c-0.1,0-0.1,0-0.2,0c-0.1,0-0.1,0-0.2,0h-0.2c-0.1,0-0.1,0-0.2,0
																		c-0.1,0-0.1,0-0.2,0c-0.1,0-0.1,0-0.2,0h-0.1c-0.1,0-0.1,0-0.2,0c-0.1,0-0.1,0-0.2,0c-0.1,0-0.2,0-0.3,0
																		s-0.1,0-0.1,0h-0.1c-0.1,0-0.2,0-0.2,0h-0.1c-0.1,0-0.3,0-0.4,0s-0.3,0-0.4,0h-0.1c-0.1,0-0.2,0-0.3,0
																		c0,0-0.1,0-0.2,0c-0.1,0-0.2,0-0.3,0s-0.1,0-0.2,0c-0.1,0-0.2,0-0.2,0c-0.1,0-0.1,0-0.2,0h-0.2c-0.1,0-0.1,0-0.1,0
																		c-0.1,0-0.2,0-0.3,0h-0.1c-0.1,0-0.3,0-0.4,0.1l0,0c-0.1,0-0.2,0-0.4,0.1h-0.1c-0.1,0-0.2,0-0.3,0.1
																		c-0.1,0-0.1,0-0.2,0c-0.1,0-0.1,0-0.2,0c0,0,0,0-0.1,0s-0.1,0-0.1,0h-0.1c-0.1,0-0.1,0-0.2,0.1l0,0h-0.1
																		c-0.2,0.1-0.4,0.1-0.6,0.2l0,0C-143.2,485.9-143.3,489.9-141.6,493.2"/>
																</g>
															</g>
														</g>
													</g>
												</g>
											</g>
										</g>
									</g>
								</g>
							</g>
						</g>
					</g>
				</g>
			</g>
		</g>
	</g>
</g>
<rect x="251.6" y="253.2" class="st4" width="1" height="53.6"/>
<path class="st34" d="M606.6,180.4V196c0-0.6-0.3-1.1-0.8-1.4l-13.1-9c-1.2-0.8-2.8-0.8-4,0l-13.1,9c-0.5,0.3-0.8,0.8-0.8,1.4v-15.6
	c0-0.6,0.3-1.1,0.8-1.4l13.1-9c1.2-0.8,2.8-0.8,4,0l13.1,9C606.2,179.3,606.6,179.8,606.6,180.4z"/>
<path d="M574.7,180.4c0,0.6,0.3,1.1,0.8,1.4l13.1,9c1.2,0.8,2.8,0.8,4,0l13.1-9c0.5-0.3,0.8-0.8,0.8-1.4V196c0,0.6-0.3,1.1-0.8,1.4
	l-13.1,9c-1.2,0.8-2.8,0.8-4,0l-13.1-9c-0.5-0.3-0.8-0.8-0.8-1.4V180.4z"/>
<g>
	<g>
		<g>
			<g>
				<g>
					<g>
						<g>
							<g>
								<g>
									<g>
										<g>
											<g>
												<defs>
													<rect id="SVGID_15_" x="28.2" y="167.8" width="40" height="40"/>
												</defs>
												<clipPath id="SVGID_16_">
													<use xlink:href="#SVGID_15_"  style="overflow:visible;"/>
												</clipPath>
												<g class="st35">
													<g>
														<g>
															<g>
																<g>
																	<g>
																		<g>
																			<g>
																				<g>
																					<g>
																						<g>
																							<defs>
																								<rect id="SVGID_17_" x="28.2" y="167.8" width="40" height="40"/>
																							</defs>
																							<clipPath id="SVGID_18_">
																								<use xlink:href="#SVGID_17_"  style="overflow:visible;"/>
																							</clipPath>
																							<path class="st36" d="M40.1,189.7c-0.1-0.3-0.1-0.6-0.2-1c0-0.1,0-0.1,0-0.2l0,0c-0.1-0.9,0-1.7,0.2-2.6l0,0
																								c0-0.1,0-0.1,0-0.2v-0.1v-0.1c0-0.1,0-0.1,0-0.2l0,0c0.3-0.9,0.7-1.7,1.2-2.5l0,0c0-0.1,0.1-0.1,0.2-0.2
																								c0,0,0-0.1,0.1-0.1c0,0,0-0.1,0.1-0.1c0.2-0.3,0.4-0.5,0.7-0.7c-1.6-3.4-1.7-7.3,0.2-10.6
																								c-1.1,0.4-2.2,0.8-3.2,1.4l0,0c-0.1,0.1-0.2,0.1-0.3,0.2c0,0,0,0-0.1,0l0,0c0,0,0,0-0.1,0c0,0,0,0-0.1,0.1
																								c-0.1,0-0.1,0.1-0.2,0.1c0,0-0.1,0.1-0.2,0.1c-0.1,0-0.1,0.1-0.2,0.1c0,0-0.1,0.1-0.2,0.1
																								c-0.1,0-0.1,0.1-0.2,0.1c0,0-0.1,0.1-0.2,0.1c-0.1,0-0.1,0.1-0.2,0.1c0,0-0.1,0.1-0.2,0.1
																								c-0.1,0-0.1,0.1-0.2,0.1l-0.1,0.1c-0.1,0.1-0.2,0.2-0.3,0.2l-0.1,0.1c0,0-0.1,0.1-0.2,0.1l-0.1,0.1
																								c0,0-0.1,0.1-0.2,0.1c0,0.1-0.1,0.1-0.1,0.1c0,0.1-0.1,0.1-0.2,0.1c-0.1,0-0.1,0.1-0.2,0.1
																								c0,0.1-0.1,0.1-0.1,0.1c0,0.1-0.1,0.1-0.1,0.1l-0.1,0.1l-0.1,0.1l-0.1,0.1l-0.1,0.1c0,0.1-0.1,0.1-0.2,0.2
																								c-0.1,0.1-0.2,0.2-0.2,0.3l-0.1,0.1c0,0.1-0.1,0.1-0.1,0.2c0,0.1-0.1,0.1-0.1,0.1c0,0.1-0.1,0.1-0.1,0.2
																								l-0.1,0.1c0,0.1-0.1,0.1-0.1,0.2l-0.1,0.1c0,0,0,0.1-0.1,0.1c0,0.1-0.1,0.1-0.1,0.1c0,0.1-0.1,0.1-0.1,0.1
																								c0,0.1-0.1,0.1-0.2,0.2c0,0,0,0.1-0.1,0.1c0,0,0,0,0,0.1s-0.1,0.1-0.1,0.2c0,0,0,0.1-0.1,0.1
																								c-0.1,0.1-0.2,0.2-0.2,0.4s-0.1,0.2-0.2,0.4c0,0,0,0.1-0.1,0.1c0,0.1-0.1,0.2-0.1,0.2s0,0.1-0.1,0.1
																								c0,0.1-0.1,0.1-0.1,0.2c0,0.1,0,0.1-0.1,0.1c0,0.1-0.1,0.1-0.1,0.2c0,0.1,0,0.1-0.1,0.1
																								c0,0.1-0.1,0.2-0.1,0.2c0,0.1,0,0.1-0.1,0.1c0,0.1-0.1,0.2-0.1,0.3v0.1c0,0.1-0.1,0.3-0.2,0.4l0,0
																								c0,0.1-0.1,0.2-0.1,0.4c0,0.1,0,0.1,0,0.1c0,0.1,0,0.2-0.1,0.3c0,0.1,0,0.1,0,0.1c0,0.1,0,0.1-0.1,0.2l0,0
																								v0.1v0.1c0,0.1,0,0.1-0.1,0.2l0,0v0.1c0,0.2-0.1,0.4-0.2,0.6l0,0C32.9,187.5,36.3,189.4,40.1,189.7"/>
																						</g>
																					</g>
																				</g>
																			</g>
																		</g>
																	</g>
																</g>
															</g>
														</g>
													</g>
													<g>
														<g>
															<g>
																<g>
																	<g>
																		<g>
																			<g>
																				<g>
																					<g>
																						<g>
																							<defs>
																								<rect id="SVGID_19_" x="28.2" y="167.8" width="40" height="40"/>
																							</defs>
																							<clipPath id="SVGID_20_">
																								<use xlink:href="#SVGID_19_"  style="overflow:visible;"/>
																							</clipPath>
																							<path class="st37" d="M45.8,195.7c-0.3-0.1-0.6-0.2-0.9-0.3c0,0-0.1-0.1-0.2-0.1l0,0
																								c-0.8-0.4-1.5-0.8-2.1-1.4l0,0l-0.1-0.1c0,0,0-0.1-0.1-0.1c0,0,0-0.1-0.1-0.1l-0.1-0.1l0,0
																								c-0.6-0.7-1.2-1.5-1.5-2.3l0,0c0-0.1-0.1-0.1-0.1-0.2v-0.1v-0.1c-0.1-0.3-0.2-0.6-0.3-1
																								c-3.8-0.3-7.2-2.2-9.1-5.4c-0.2,1.1-0.4,2.3-0.4,3.5l0,0v0.3v0.1l0,0v0.1v0.1c0,0.1,0,0.1,0,0.2
																								c0,0.1,0,0.1,0,0.2c0,0.1,0,0.1,0,0.2c0,0.1,0,0.1,0,0.2c0,0.1,0,0.1,0,0.2c0,0.1,0,0.1,0,0.2
																								c0,0.1,0,0.1,0,0.2c0,0.1,0,0.1,0,0.2c0,0.1,0,0.1,0,0.2c0,0.1,0,0.1,0,0.2c0,0.1,0,0.2,0.1,0.4
																								c0,0.1,0,0.1,0,0.2c0,0.1,0,0.1,0,0.2c0,0.1,0,0.1,0,0.2c0,0.1,0,0.1,0,0.2c0,0.1,0,0.1,0,0.2s0,0.1,0,0.2
																								c0,0.1,0,0.1,0,0.2c0,0.1,0,0.1,0,0.2c0,0.1,0,0.1,0,0.2c0,0.1,0,0.1,0,0.2c0,0.1,0,0.1,0,0.2
																								c0,0.1,0,0.1,0,0.2c0,0.1,0,0.1,0.1,0.2c0,0.1,0,0.1,0.1,0.2c0,0.1,0.1,0.2,0.1,0.3s0,0.1,0.1,0.2
																								c0,0.1,0,0.1,0.1,0.2c0,0.1,0,0.1,0.1,0.2c0,0.1,0,0.1,0.1,0.2c0,0.1,0,0.1,0.1,0.2c0,0.1,0,0.1,0.1,0.2
																								c0,0.1,0,0.1,0.1,0.2v0.1c0,0.1,0,0.1,0.1,0.2c0,0.1,0,0.1,0.1,0.2c0,0.1,0.1,0.1,0.1,0.2c0,0,0,0.1,0.1,0.1
																								c0,0,0,0,0,0.1s0.1,0.1,0.1,0.2c0,0.1,0,0.1,0.1,0.1c0.1,0.1,0.1,0.2,0.2,0.4c0.1,0.1,0.1,0.2,0.2,0.4
																								c0,0,0,0.1,0.1,0.1c0,0.1,0.1,0.2,0.2,0.2l0.1,0.1c0,0.1,0.1,0.1,0.2,0.2l0.1,0.1c0,0.1,0.1,0.1,0.1,0.2
																								l0.1,0.1c0,0.1,0.1,0.1,0.2,0.2l0.1,0.1c0.1,0.1,0.1,0.1,0.2,0.2c0,0,0,0.1,0.1,0.1c0.1,0.1,0.2,0.2,0.3,0.3
																								l0,0c0.1,0.1,0.2,0.2,0.2,0.3l0.1,0.1c0.1,0.1,0.1,0.1,0.2,0.2l0.1,0.1c0,0.1,0.1,0.1,0.2,0.1l0,0
																								c0,0,0,0,0.1,0.1c0,0,0,0,0.1,0.1c0,0.1,0.1,0.1,0.2,0.2l0,0c0,0,0,0,0.1,0.1c0.2,0.1,0.3,0.3,0.5,0.4l0,0
																								C40.3,200.8,43.7,198.8,45.8,195.7"/>
																						</g>
																					</g>
																				</g>
																			</g>
																		</g>
																	</g>
																</g>
															</g>
														</g>
													</g>
													<g>
														<g>
															<g>
																<g>
																	<g>
																		<g>
																			<g>
																				<g>
																					<g>
																						<g>
																							<defs>
																								<rect id="SVGID_21_" x="28.2" y="167.8" width="40" height="40"/>
																							</defs>
																							<clipPath id="SVGID_22_">
																								<use xlink:href="#SVGID_21_"  style="overflow:visible;"/>
																							</clipPath>
																							<path class="st38" d="M53.8,193.8c-0.2,0.2-0.5,0.4-0.8,0.6c-0.1,0-0.1,0.1-0.2,0.1l0,0
																								c-0.7,0.5-1.5,0.9-2.3,1.1l0,0c-0.1,0-0.1,0-0.2,0h-0.1h-0.1c-0.1,0-0.1,0-0.2,0l0,0
																								c-0.9,0.2-1.8,0.3-2.8,0.2c0,0,0,0-0.1,0s-0.2,0-0.2,0h-0.1h-0.1c-0.3-0.1-0.7-0.1-1-0.2
																								c-2.1,3.1-5.5,5.1-9.3,5.1c0.9,0.8,1.8,1.5,2.8,2.1l0,0c0.1,0.1,0.2,0.1,0.3,0.1c0,0,0,0,0.1,0l0,0
																								c0,0,0,0,0.1,0c0,0,0,0,0.1,0s0.1,0.1,0.2,0.1c0,0,0.1,0.1,0.2,0.1c0.1,0,0.1,0.1,0.2,0.1
																								c0,0,0.1,0.1,0.2,0.1s0.1,0.1,0.2,0.1c0,0,0.1,0.1,0.2,0.1c0.1,0,0.1,0.1,0.2,0.1c0,0,0.1,0.1,0.2,0.1
																								c0.1,0,0.1,0.1,0.2,0.1c0,0,0.1,0,0.2,0.1c0.1,0,0.2,0.1,0.3,0.1c0,0,0.1,0,0.2,0.1c0.1,0,0.1,0.1,0.2,0.1
																								c0.1,0,0.1,0,0.2,0.1s0.1,0,0.2,0.1s0.1,0,0.2,0.1s0.1,0,0.2,0.1c0.1,0,0.1,0,0.2,0.1c0.1,0,0.1,0,0.2,0.1
																								c0.1,0,0.1,0,0.2,0.1c0.1,0,0.1,0,0.2,0c0.1,0,0.1,0,0.2,0.1c0.1,0,0.1,0,0.2,0c0.1,0,0.1,0,0.2,0.1
																								c0.1,0,0.1,0,0.2,0.1c0.1,0,0.2,0.1,0.3,0.1s0.1,0,0.2,0s0.1,0,0.2,0c0.1,0,0.1,0,0.2,0c0.1,0,0.2,0,0.2,0
																								s0.1,0,0.2,0c0.1,0,0.2,0,0.2,0c0.1,0,0.1,0,0.2,0h0.1c0.1,0,0.1,0,0.2,0s0.1,0,0.2,0s0.2,0,0.3,0
																								s0.1,0,0.2,0h0.1c0.1,0,0.2,0,0.2,0h0.1c0.2,0,0.3,0,0.4,0s0.3,0,0.4,0s0.1,0,0.1,0c0.1,0,0.2,0,0.3,0
																								s0.1,0,0.2,0s0.2,0,0.3,0s0.1,0,0.2,0s0.2,0,0.2,0c0.1,0,0.1,0,0.2,0s0.2,0,0.2,0c0.1,0,0.1,0,0.1,0
																								c0.1,0,0.2,0,0.3,0s0.1,0,0.1,0c0.1,0,0.3,0,0.4-0.1l0,0c0.1,0,0.2-0.1,0.4-0.1c0.1,0,0.1,0,0.1,0
																								c0.1,0,0.2,0,0.3-0.1c0.1,0,0.1,0,0.2,0s0.1,0,0.2-0.1l0,0h0.1h0.1c0.1,0,0.2,0,0.2-0.1l0,0H53
																								c0.2-0.1,0.4-0.1,0.6-0.2l0,0C55.6,201.2,55.5,197.2,53.8,193.8"/>
																						</g>
																					</g>
																				</g>
																			</g>
																		</g>
																	</g>
																</g>
															</g>
														</g>
													</g>
													<g>
														<g>
															<g>
																<g>
																	<g>
																		<g>
																			<g>
																				<g>
																					<g>
																						<g>
																							<defs>
																								<rect id="SVGID_23_" x="28.2" y="167.8" width="40" height="40"/>
																							</defs>
																							<clipPath id="SVGID_24_">
																								<use xlink:href="#SVGID_23_"  style="overflow:visible;"/>
																							</clipPath>
																							<path class="st39" d="M56.2,185.9c0.1,0.3,0.1,0.6,0.2,1c0,0.1,0,0.1,0,0.2l0,0c0.1,0.9,0,1.7-0.2,2.6l0,0
																								c0,0.1,0,0.1,0,0.2v0.1v0.1c0,0.1,0,0.1,0,0.2l0,0c-0.3,0.9-0.7,1.7-1.2,2.5l0,0c-0.1,0.1-0.1,0.1-0.2,0.2
																								l-0.1,0.1l-0.1,0.1c-0.2,0.3-0.4,0.5-0.7,0.7c1.6,3.4,1.7,7.3-0.2,10.6c1.1-0.4,2.2-0.8,3.2-1.4l0,0
																								c0.1-0.1,0.2-0.1,0.3-0.2c0,0,0,0,0.1,0l0,0h0.1c0,0,0.1,0,0.1-0.1c0.1,0,0.1-0.1,0.2-0.1s0.1-0.1,0.2-0.1
																								s0.1-0.1,0.2-0.1s0.1-0.1,0.2-0.1s0.1-0.1,0.2-0.1s0.1-0.1,0.2-0.1s0.1-0.1,0.2-0.1L59,202
																								c0.1-0.1,0.1-0.1,0.2-0.1l0.1-0.1c0.1-0.1,0.2-0.2,0.3-0.2s0.1-0.1,0.1-0.1c0.1,0,0.1-0.1,0.2-0.1
																								c0.1-0.1,0.1-0.1,0.1-0.1c0.1-0.1,0.1-0.1,0.2-0.1s0.1-0.1,0.1-0.1s0.1-0.1,0.2-0.1c0-0.1,0.1-0.1,0.1-0.1
																								l0.1-0.1c0.1-0.1,0.1-0.1,0.2-0.1c0-0.1,0.1-0.1,0.1-0.1c0-0.1,0.1-0.1,0.1-0.1l0.1-0.1l0.1-0.1
																								c0.1-0.1,0.1-0.1,0.2-0.2c0.1-0.1,0.2-0.2,0.2-0.3l0.1-0.1c0-0.1,0.1-0.1,0.1-0.2c0-0.1,0.1-0.1,0.1-0.1
																								c0.1-0.1,0.1-0.1,0.1-0.2l0.1-0.1c0-0.1,0.1-0.1,0.1-0.2c0-0.1,0.1-0.1,0.1-0.1l0.1-0.1
																								c0-0.1,0.1-0.1,0.1-0.1c0-0.1,0.1-0.1,0.1-0.1c0.1-0.1,0.1-0.1,0.1-0.2l0.1-0.1c0,0,0,0,0-0.1
																								s0.1-0.1,0.1-0.2l0.1-0.1c0.1-0.1,0.2-0.2,0.2-0.4s0.1-0.2,0.2-0.4c0,0,0-0.1,0.1-0.1
																								c0.1-0.1,0.1-0.2,0.1-0.2s0-0.1,0.1-0.1c0-0.1,0.1-0.1,0.1-0.2c0-0.1,0-0.1,0.1-0.1c0-0.1,0.1-0.1,0.1-0.2
																								c0-0.1,0.1-0.1,0.1-0.1c0-0.1,0.1-0.2,0.1-0.2l0.1-0.1c0-0.1,0.1-0.2,0.1-0.3c0,0,0-0.1,0.1-0.1
																								c0.1-0.1,0.1-0.3,0.1-0.4l0,0c0-0.1,0.1-0.2,0.1-0.4c0,0,0-0.1,0.1-0.1c0-0.1,0.1-0.2,0.1-0.3s0-0.1,0.1-0.1
																								c0-0.1,0-0.1,0.1-0.2c0,0,0,0,0-0.1v-0.1v-0.1c0-0.1,0-0.1,0.1-0.2l0,0v-0.1c0.1-0.2,0.1-0.4,0.2-0.6l0,0
																								C63.4,188,60,186.2,56.2,185.9"/>
																						</g>
																					</g>
																				</g>
																			</g>
																		</g>
																	</g>
																</g>
															</g>
														</g>
													</g>
													<g>
														<g>
															<g>
																<g>
																	<g>
																		<g>
																			<g>
																				<g>
																					<g>
																						<g>
																							<defs>
																								<rect id="SVGID_25_" x="28.2" y="167.8" width="40" height="40"/>
																							</defs>
																							<clipPath id="SVGID_26_">
																								<use xlink:href="#SVGID_25_"  style="overflow:visible;"/>
																							</clipPath>
																							<path class="st40" d="M50.6,179.8c0.3,0.1,0.6,0.2,0.9,0.3c0.1,0,0.1,0.1,0.2,0.1l0,0
																								c0.8,0.4,1.5,0.8,2.1,1.4l0,0l0.1,0.1c0,0,0,0.1,0.1,0.1l0.1,0.1l0.1,0.1l0,0c0.6,0.7,1.2,1.5,1.5,2.3
																								c0,0,0,0,0,0.1s0.1,0.1,0.1,0.2c0,0,0,0.1,0.1,0.1v0.1c0.1,0.3,0.2,0.6,0.3,1c3.8,0.3,7.2,2.2,9.1,5.4
																								c0.2-1.1,0.4-2.3,0.4-3.5l0,0v-0.3v-0.1l0,0v-0.1v-0.1c0-0.1,0-0.1,0-0.2c0-0.1,0-0.1,0-0.2
																								c0-0.1,0-0.1,0-0.2c0-0.1,0-0.1,0-0.2c0-0.1,0-0.1,0-0.2c0-0.1,0-0.1,0-0.2c0-0.1,0-0.1,0-0.2
																								c0-0.1,0-0.1,0-0.2c0-0.1,0-0.1,0-0.2c0-0.1,0-0.1,0-0.2c0-0.1,0-0.2-0.1-0.4c0-0.1,0-0.1,0-0.2
																								c0-0.1,0-0.1,0-0.2c0-0.1,0-0.1,0-0.2c0-0.1,0-0.1,0-0.2c0-0.1,0-0.1,0-0.2c0-0.1,0-0.1-0.1-0.2
																								c0-0.1,0-0.1-0.1-0.2c0-0.1,0-0.1-0.1-0.2c0-0.1,0-0.1-0.1-0.2c0-0.1,0-0.1-0.1-0.2c0-0.1,0-0.1-0.1-0.2
																								c0-0.1,0-0.1-0.1-0.2c0-0.1,0-0.1-0.1-0.2c0-0.1-0.1-0.1-0.1-0.2c0-0.1-0.1-0.2-0.1-0.3s0-0.1-0.1-0.2
																								c0-0.1-0.1-0.1-0.1-0.2c0-0.1-0.1-0.1-0.1-0.2c0-0.1-0.1-0.1-0.1-0.2c0-0.1-0.1-0.1-0.1-0.2
																								c0-0.1-0.1-0.1-0.1-0.2c0-0.1-0.1-0.1-0.1-0.2c0,0,0-0.1-0.1-0.1c0-0.1-0.1-0.1-0.1-0.2
																								c0-0.1-0.1-0.1-0.1-0.2c0-0.1-0.1-0.1-0.1-0.2l-0.1-0.1c0,0,0,0,0-0.1s-0.1-0.1-0.1-0.2c0-0.1,0-0.1-0.1-0.1
																								c-0.1-0.1-0.1-0.2-0.2-0.4c-0.1-0.1-0.1-0.2-0.2-0.4l-0.1-0.1c-0.1-0.1-0.1-0.2-0.2-0.2
																								c0-0.1-0.1-0.1-0.1-0.1c-0.1-0.1-0.1-0.1-0.2-0.2l-0.1-0.1c-0.1-0.1-0.1-0.1-0.1-0.2c0-0.1-0.1-0.1-0.1-0.1
																								c-0.1-0.1-0.1-0.1-0.2-0.2l-0.1-0.1c-0.1-0.1-0.1-0.1-0.2-0.2l-0.1-0.1c-0.1-0.1-0.2-0.2-0.3-0.3l0,0
																								c-0.1-0.1-0.2-0.2-0.2-0.3l-0.1-0.1c-0.1-0.1-0.1-0.1-0.2-0.2l-0.1-0.1c-0.1-0.1-0.1-0.1-0.2-0.1l0,0
																								l-0.1-0.1l-0.1-0.1c-0.1-0.1-0.1-0.1-0.2-0.2l0,0c0,0-0.1,0-0.1-0.1c-0.2-0.1-0.3-0.3-0.5-0.4l0,0
																								C56.1,174.7,52.7,176.7,50.6,179.8"/>
																						</g>
																					</g>
																				</g>
																			</g>
																		</g>
																	</g>
																</g>
															</g>
														</g>
													</g>
													<g>
														<g>
															<g>
																<g>
																	<g>
																		<g>
																			<g>
																				<g>
																					<g>
																						<g>
																							<defs>
																								<rect id="SVGID_27_" x="28.2" y="167.8" width="40" height="40"/>
																							</defs>
																							<clipPath id="SVGID_28_">
																								<use xlink:href="#SVGID_27_"  style="overflow:visible;"/>
																							</clipPath>
																							<path class="st41" d="M42.5,181.8c0.2-0.2,0.5-0.4,0.8-0.6c0,0,0.1-0.1,0.2-0.1l0,0c0.7-0.5,1.5-0.9,2.3-1.1
																								l0,0c0,0,0.1,0,0.2,0h0.1h0.1c0,0,0.1,0,0.2,0l0,0c0.9-0.2,1.8-0.3,2.8-0.2c0,0,0,0,0.1,0s0.2,0,0.2,0h0.1
																								h0.1c0.3,0.1,0.7,0.1,1,0.2c2.1-3.1,5.5-5.1,9.3-5.1c-0.9-0.8-1.8-1.5-2.8-2.1l0,0c-0.1-0.1-0.2-0.1-0.3-0.1
																								h-0.1l0,0h-0.1h-0.1c-0.1,0-0.1-0.1-0.2-0.1s-0.1-0.1-0.2-0.1s-0.1-0.1-0.2-0.1s-0.1-0.1-0.2-0.1
																								s-0.1-0.1-0.2-0.1s-0.1-0.1-0.2-0.1s-0.1-0.1-0.2-0.1s-0.1,0-0.2-0.1c-0.1,0-0.1-0.1-0.2-0.1
																								s-0.1-0.1-0.2-0.1c-0.1-0.1-0.2-0.1-0.3-0.1s-0.1,0-0.2-0.1c-0.1,0-0.1-0.1-0.2-0.1s-0.1,0-0.2-0.1
																								s-0.1,0-0.2-0.1s-0.1,0-0.2-0.1s-0.1,0-0.2-0.1c-0.1,0-0.1,0-0.2-0.1c-0.1,0-0.1,0-0.2-0.1
																								c-0.1,0-0.1,0-0.2-0.1c-0.1,0-0.1,0-0.2-0.1c-0.1,0-0.1,0-0.2,0s-0.1,0-0.2,0s-0.1,0-0.2-0.1
																								c-0.1,0-0.2,0-0.2-0.1c-0.1,0-0.2,0-0.3-0.1c-0.1,0-0.1,0-0.2,0s-0.1,0-0.2,0s-0.1,0-0.2,0s-0.1,0-0.2,0
																								s-0.1,0-0.2,0s-0.1,0-0.2,0s-0.1,0-0.2,0h-0.1c-0.1,0-0.1,0-0.2,0s-0.1,0-0.2,0s-0.2,0-0.3,0s-0.1,0-0.2,0
																								h-0.1c-0.1,0-0.2,0-0.2,0c-0.1,0-0.1,0-0.1,0c-0.1,0-0.3,0-0.4,0s-0.3,0-0.4,0s-0.1,0-0.1,0
																								c-0.1,0-0.2,0-0.3,0s-0.1,0-0.2,0s-0.2,0-0.3,0s-0.1,0-0.2,0s-0.2,0-0.2,0c-0.1,0-0.1,0-0.2,0
																								c-0.1,0-0.2,0-0.2,0h-0.1c-0.1,0-0.2,0-0.3,0h-0.1c-0.1,0-0.3,0.1-0.4,0.1l0,0c-0.1,0-0.2,0-0.4,0.1h-0.1
																								c-0.1,0-0.2,0-0.3,0.1c0,0-0.1,0-0.2,0c-0.1,0-0.1,0-0.2,0.1l0,0h-0.1h-0.1c-0.1,0-0.2,0-0.2,0.1l0,0h-0.1
																								c-0.2,0.1-0.4,0.1-0.6,0.2l0,0C40.8,174.4,40.8,178.4,42.5,181.8"/>
																						</g>
																					</g>
																				</g>
																			</g>
																		</g>
																	</g>
																</g>
															</g>
														</g>
													</g>
												</g>
											</g>
										</g>
									</g>
								</g>
							</g>
						</g>
					</g>
				</g>
			</g>
		</g>
	</g>
</g>
<g>
	<g>
		<g>
			<g>
				<g>
					<g>
						<g>
							<g>
								<g>
									<g>
										<g>
											<g>
												<defs>
													<rect id="SVGID_29_" x="128.9" y="167.4" width="40" height="40"/>
												</defs>
												<clipPath id="SVGID_30_">
													<use xlink:href="#SVGID_29_"  style="overflow:visible;"/>
												</clipPath>
												<g class="st42">
													<g>
														<g>
															<g>
																<g>
																	<g>
																		<g>
																			<g>
																				<g>
																					<g>
																						<g>
																							<defs>
																								<rect id="SVGID_31_" x="128.9" y="167.4" width="40" height="40"/>
																							</defs>
																							<clipPath id="SVGID_32_">
																								<use xlink:href="#SVGID_31_"  style="overflow:visible;"/>
																							</clipPath>
																							<path class="st43" d="M140.8,189.3c-0.1-0.3-0.1-0.6-0.2-1c0-0.1,0-0.1,0-0.2l0,0c-0.1-0.9,0-1.7,0.2-2.6
																								l0,0c0-0.1,0-0.1,0-0.2v-0.1v-0.1c0-0.1,0-0.1,0-0.2l0,0c0.3-0.9,0.7-1.7,1.2-2.5l0,0c0-0.1,0.1-0.1,0.2-0.2
																								c0,0,0-0.1,0.1-0.1c0,0,0-0.1,0.1-0.1c0.2-0.3,0.4-0.5,0.7-0.7c-1.6-3.4-1.7-7.3,0.2-10.6
																								c-1.1,0.4-2.2,0.8-3.2,1.4l0,0c-0.1,0.1-0.2,0.1-0.3,0.2c0,0,0,0-0.1,0l0,0c0,0,0,0-0.1,0c0,0,0,0-0.1,0.1
																								c-0.1,0-0.1,0.1-0.2,0.1c0,0-0.1,0.1-0.2,0.1c-0.1,0-0.1,0.1-0.2,0.1c0,0-0.1,0.1-0.2,0.1s-0.1,0.1-0.2,0.1
																								c0,0-0.1,0.1-0.2,0.1c-0.1,0-0.1,0.1-0.2,0.1c0,0-0.1,0.1-0.2,0.1s-0.1,0.1-0.2,0.1l-0.1,0.1
																								c-0.1,0.1-0.2,0.2-0.3,0.2l-0.1,0.1c0,0-0.1,0.1-0.2,0.1l-0.1,0.1c0,0-0.1,0.1-0.2,0.1
																								c0,0.1-0.1,0.1-0.1,0.1c0,0.1-0.1,0.1-0.2,0.1s-0.1,0.1-0.2,0.1c0,0.1-0.1,0.1-0.1,0.1
																								c0,0.1-0.1,0.1-0.1,0.1l-0.1,0.1l-0.1,0.1l-0.1,0.1l-0.1,0.1c0,0.1-0.1,0.1-0.2,0.2
																								c-0.1,0.1-0.2,0.2-0.2,0.3l-0.1,0.1c0,0.1-0.1,0.1-0.1,0.2c0,0.1-0.1,0.1-0.1,0.1c0,0.1-0.1,0.1-0.1,0.2
																								l-0.1,0.1c0,0.1-0.1,0.1-0.1,0.2l-0.1,0.1c0,0,0,0.1-0.1,0.1c0,0.1-0.1,0.1-0.1,0.1c0,0.1-0.1,0.1-0.1,0.1
																								c0,0.1-0.1,0.1-0.2,0.2c0,0,0,0.1-0.1,0.1c0,0,0,0,0,0.1s-0.1,0.1-0.1,0.2c0,0,0,0.1-0.1,0.1
																								c-0.1,0.1-0.2,0.2-0.2,0.4s-0.1,0.2-0.2,0.4c0,0,0,0.1-0.1,0.1c0,0.1-0.1,0.2-0.1,0.2s0,0.1-0.1,0.1
																								c0,0.1-0.1,0.1-0.1,0.2c0,0.1,0,0.1-0.1,0.1c0,0.1-0.1,0.1-0.1,0.2c0,0.1,0,0.1-0.1,0.1
																								c0,0.1-0.1,0.2-0.1,0.2c0,0.1,0,0.1-0.1,0.1c0,0.1-0.1,0.2-0.1,0.3v0.1c0,0.1-0.1,0.3-0.2,0.4l0,0
																								c0,0.1-0.1,0.2-0.1,0.4c0,0.1,0,0.1,0,0.1c0,0.1,0,0.2-0.1,0.3c0,0.1,0,0.1,0,0.1c0,0.1,0,0.1-0.1,0.2l0,0
																								v0.1v0.1c0,0.1,0,0.1-0.1,0.2l0,0v0.1c0,0.2-0.1,0.4-0.2,0.6l0,0C133.6,187.1,137,189,140.8,189.3"/>
																						</g>
																					</g>
																				</g>
																			</g>
																		</g>
																	</g>
																</g>
															</g>
														</g>
													</g>
													<g>
														<g>
															<g>
																<g>
																	<g>
																		<g>
																			<g>
																				<g>
																					<g>
																						<g>
																							<defs>
																								<rect id="SVGID_33_" x="128.9" y="167.4" width="40" height="40"/>
																							</defs>
																							<clipPath id="SVGID_34_">
																								<use xlink:href="#SVGID_33_"  style="overflow:visible;"/>
																							</clipPath>
																							<path class="st44" d="M146.5,195.3c-0.3-0.1-0.6-0.2-0.9-0.3c0,0-0.1-0.1-0.2-0.1l0,0
																								c-0.8-0.4-1.5-0.8-2.1-1.4l0,0l-0.1-0.1c0,0,0-0.1-0.1-0.1c0,0,0-0.1-0.1-0.1l-0.1-0.1l0,0
																								c-0.6-0.7-1.2-1.5-1.5-2.3l0,0c0-0.1-0.1-0.1-0.1-0.2v-0.1v-0.1c-0.1-0.3-0.2-0.6-0.3-1
																								c-3.8-0.3-7.2-2.2-9.1-5.4c-0.2,1.1-0.4,2.3-0.4,3.5l0,0v0.3v0.1l0,0v0.1v0.1c0,0.1,0,0.1,0,0.2
																								c0,0.1,0,0.1,0,0.2c0,0.1,0,0.1,0,0.2c0,0.1,0,0.1,0,0.2c0,0.1,0,0.1,0,0.2c0,0.1,0,0.1,0,0.2
																								c0,0.1,0,0.1,0,0.2c0,0.1,0,0.1,0,0.2c0,0.1,0,0.1,0,0.2c0,0.1,0,0.1,0,0.2c0,0.1,0,0.2,0.1,0.4
																								c0,0.1,0,0.1,0,0.2c0,0.1,0,0.1,0,0.2c0,0.1,0,0.1,0,0.2c0,0.1,0,0.1,0,0.2c0,0.1,0,0.1,0,0.2s0,0.1,0,0.2
																								c0,0.1,0,0.1,0,0.2c0,0.1,0,0.1,0,0.2c0,0.1,0,0.1,0,0.2c0,0.1,0,0.1,0,0.2c0,0.1,0,0.1,0,0.2
																								c0,0.1,0,0.1,0,0.2c0,0.1,0,0.1,0.1,0.2c0,0.1,0,0.1,0.1,0.2c0,0.1,0.1,0.2,0.1,0.3s0,0.1,0.1,0.2
																								c0,0.1,0,0.1,0.1,0.2c0,0.1,0,0.1,0.1,0.2c0,0.1,0,0.1,0.1,0.2c0,0.1,0,0.1,0.1,0.2c0,0.1,0,0.1,0.1,0.2
																								c0,0.1,0,0.1,0.1,0.2v0.1c0,0.1,0,0.1,0.1,0.2c0,0.1,0,0.1,0.1,0.2c0,0.1,0.1,0.1,0.1,0.2c0,0,0,0.1,0.1,0.1
																								c0,0,0,0,0,0.1s0.1,0.1,0.1,0.2c0,0.1,0,0.1,0.1,0.1c0.1,0.1,0.1,0.2,0.2,0.4c0.1,0.1,0.1,0.2,0.2,0.4
																								c0,0,0,0.1,0.1,0.1c0,0.1,0.1,0.2,0.2,0.2l0.1,0.1c0,0.1,0.1,0.1,0.2,0.2l0.1,0.1c0,0.1,0.1,0.1,0.1,0.2
																								l0.1,0.1c0,0.1,0.1,0.1,0.2,0.2l0.1,0.1c0.1,0.1,0.1,0.1,0.2,0.2c0,0,0,0.1,0.1,0.1c0.1,0.1,0.2,0.2,0.3,0.3
																								l0,0c0.1,0.1,0.2,0.2,0.2,0.3l0.1,0.1c0.1,0.1,0.1,0.1,0.2,0.2l0.1,0.1c0,0.1,0.1,0.1,0.2,0.1l0,0
																								c0,0,0,0,0.1,0.1c0,0,0,0,0.1,0.1c0,0.1,0.1,0.1,0.2,0.2l0,0c0,0,0,0,0.1,0.1c0.2,0.1,0.3,0.3,0.5,0.4l0,0
																								C141,200.4,144.4,198.4,146.5,195.3"/>
																						</g>
																					</g>
																				</g>
																			</g>
																		</g>
																	</g>
																</g>
															</g>
														</g>
													</g>
													<g>
														<g>
															<g>
																<g>
																	<g>
																		<g>
																			<g>
																				<g>
																					<g>
																						<g>
																							<defs>
																								<rect id="SVGID_35_" x="128.9" y="167.4" width="40" height="40"/>
																							</defs>
																							<clipPath id="SVGID_36_">
																								<use xlink:href="#SVGID_35_"  style="overflow:visible;"/>
																							</clipPath>
																							<path class="st45" d="M154.5,193.4c-0.2,0.2-0.5,0.4-0.8,0.6c-0.1,0-0.1,0.1-0.2,0.1l0,0
																								c-0.7,0.5-1.5,0.9-2.3,1.1l0,0c-0.1,0-0.1,0-0.2,0h-0.1h-0.1c-0.1,0-0.1,0-0.2,0l0,0
																								c-0.9,0.2-1.8,0.3-2.8,0.2c0,0,0,0-0.1,0s-0.2,0-0.2,0h-0.1h-0.1c-0.3-0.1-0.7-0.1-1-0.2
																								c-2.1,3.1-5.5,5.1-9.3,5.1c0.9,0.8,1.8,1.5,2.8,2.1l0,0c0.1,0.1,0.2,0.1,0.3,0.1c0,0,0,0,0.1,0l0,0
																								c0,0,0,0,0.1,0c0,0,0,0,0.1,0s0.1,0.1,0.2,0.1c0,0,0.1,0.1,0.2,0.1c0.1,0,0.1,0.1,0.2,0.1
																								c0,0,0.1,0.1,0.2,0.1c0.1,0,0.1,0.1,0.2,0.1c0,0,0.1,0.1,0.2,0.1c0.1,0,0.1,0.1,0.2,0.1c0,0,0.1,0.1,0.2,0.1
																								c0.1,0,0.1,0.1,0.2,0.1c0,0,0.1,0,0.2,0.1c0.1,0,0.2,0.1,0.3,0.1c0,0,0.1,0,0.2,0.1c0.1,0,0.1,0.1,0.2,0.1
																								s0.1,0,0.2,0.1c0.1,0.1,0.1,0,0.2,0.1c0.1,0.1,0.1,0,0.2,0.1s0.1,0,0.2,0.1c0.1,0,0.1,0,0.2,0.1
																								c0.1,0,0.1,0,0.2,0.1c0.1,0,0.1,0,0.2,0.1c0.1,0,0.1,0,0.2,0s0.1,0,0.2,0.1c0.1,0,0.1,0,0.2,0
																								c0.1,0,0.1,0,0.2,0.1c0.1,0,0.1,0,0.2,0.1c0.1,0,0.2,0.1,0.3,0.1s0.1,0,0.2,0s0.1,0,0.2,0c0.1,0,0.1,0,0.2,0
																								c0.1,0,0.2,0,0.2,0s0.1,0,0.2,0s0.2,0,0.2,0c0.1,0,0.1,0,0.2,0h0.1c0.1,0,0.1,0,0.2,0c0.1,0,0.1,0,0.2,0
																								c0.1,0,0.2,0,0.3,0s0.1,0,0.2,0h0.1c0.1,0,0.2,0,0.2,0h0.1c0.2,0,0.3,0,0.4,0c0.1,0,0.3,0,0.4,0
																								c0.1,0,0.1,0,0.1,0c0.1,0,0.2,0,0.3,0s0.1,0,0.2,0c0.1,0,0.2,0,0.3,0s0.1,0,0.2,0c0.1,0,0.2,0,0.2,0
																								c0.1,0,0.1,0,0.2,0c0.1,0,0.2,0,0.2,0c0.1,0,0.1,0,0.1,0c0.1,0,0.2,0,0.3,0s0.1,0,0.1,0c0.1,0,0.3,0,0.4-0.1
																								l0,0c0.1,0,0.2-0.1,0.4-0.1c0.1,0,0.1,0,0.1,0c0.1,0,0.2,0,0.3-0.1c0.1,0,0.1,0,0.2,0c0.1,0,0.1,0,0.2-0.1
																								l0,0h0.1h0.1c0.1,0,0.2,0,0.2-0.1l0,0h0.1c0.2-0.1,0.4-0.1,0.6-0.2l0,0C156.3,200.8,156.2,196.8,154.5,193.4
																								"/>
																						</g>
																					</g>
																				</g>
																			</g>
																		</g>
																	</g>
																</g>
															</g>
														</g>
													</g>
													<g>
														<g>
															<g>
																<g>
																	<g>
																		<g>
																			<g>
																				<g>
																					<g>
																						<g>
																							<defs>
																								<rect id="SVGID_37_" x="128.9" y="167.4" width="40" height="40"/>
																							</defs>
																							<clipPath id="SVGID_38_">
																								<use xlink:href="#SVGID_37_"  style="overflow:visible;"/>
																							</clipPath>
																							<path class="st46" d="M156.9,185.5c0.1,0.3,0.1,0.6,0.2,1c0,0.1,0,0.1,0,0.2l0,0c0.1,0.9,0,1.7-0.2,2.6l0,0
																								c0,0.1,0,0.1,0,0.2v0.1v0.1c0,0.1,0,0.1,0,0.2l0,0c-0.3,0.9-0.7,1.7-1.2,2.5l0,0c-0.1,0.1-0.1,0.1-0.2,0.2
																								l-0.1,0.1l-0.1,0.1c-0.2,0.3-0.4,0.5-0.7,0.7c1.6,3.4,1.7,7.3-0.2,10.6c1.1-0.4,2.2-0.8,3.2-1.4l0,0
																								c0.1-0.1,0.2-0.1,0.3-0.2c0,0,0,0,0.1,0l0,0h0.1c0,0,0.1,0,0.1-0.1c0.1,0,0.1-0.1,0.2-0.1
																								c0.1,0,0.1-0.1,0.2-0.1c0.1,0,0.1-0.1,0.2-0.1c0.1,0,0.1-0.1,0.2-0.1c0.1,0,0.1-0.1,0.2-0.1
																								c0.1,0,0.1-0.1,0.2-0.1c0.1,0,0.1-0.1,0.2-0.1l0.1-0.1c0.1-0.1,0.1-0.1,0.2-0.1l0.1-0.1
																								c0.1-0.1,0.2-0.2,0.3-0.2s0.1-0.1,0.1-0.1c0.1,0,0.1-0.1,0.2-0.1c0.1-0.1,0.1-0.1,0.1-0.1
																								c0.1-0.1,0.1-0.1,0.2-0.1c0.1,0,0.1-0.1,0.1-0.1s0.1-0.1,0.2-0.1c0-0.1,0.1-0.1,0.1-0.1l0.1-0.1
																								c0.1-0.1,0.1-0.1,0.2-0.1c0-0.1,0.1-0.1,0.1-0.1c0-0.1,0.1-0.1,0.1-0.1l0.1-0.1l0.1-0.1
																								c0.1-0.1,0.1-0.1,0.2-0.2c0.1-0.1,0.2-0.2,0.2-0.3l0.1-0.1c0-0.1,0.1-0.1,0.1-0.2c0-0.1,0.1-0.1,0.1-0.1
																								c0.1-0.1,0.1-0.1,0.1-0.2l0.1-0.1c0-0.1,0.1-0.1,0.1-0.2c0-0.1,0.1-0.1,0.1-0.1l0.1-0.1
																								c0-0.1,0.1-0.1,0.1-0.1c0-0.1,0.1-0.1,0.1-0.1c0.1-0.1,0.1-0.1,0.1-0.2l0.1-0.1c0,0,0,0,0-0.1
																								s0.1-0.1,0.1-0.2l0.1-0.1c0.1-0.1,0.2-0.2,0.2-0.4s0.1-0.2,0.2-0.4c0,0,0-0.1,0.1-0.1
																								c0.1-0.1,0.1-0.2,0.1-0.2s0-0.1,0.1-0.1c0-0.1,0.1-0.1,0.1-0.2c0-0.1,0-0.1,0.1-0.1c0-0.1,0.1-0.1,0.1-0.2
																								c0-0.1,0.1-0.1,0.1-0.1c0-0.1,0.1-0.2,0.1-0.2l0.1-0.1c0-0.1,0.1-0.2,0.1-0.3c0,0,0-0.1,0.1-0.1
																								c0.1-0.1,0.1-0.3,0.1-0.4l0,0c0-0.1,0.1-0.2,0.1-0.4c0,0,0-0.1,0.1-0.1c0-0.1,0.1-0.2,0.1-0.3s0-0.1,0.1-0.1
																								c0-0.1,0-0.1,0.1-0.2c0,0,0,0,0-0.1v-0.1v-0.1c0-0.1,0-0.1,0.1-0.2l0,0v-0.1c0.1-0.2,0.1-0.4,0.2-0.6l0,0
																								C164.1,187.6,160.7,185.8,156.9,185.5"/>
																						</g>
																					</g>
																				</g>
																			</g>
																		</g>
																	</g>
																</g>
															</g>
														</g>
													</g>
													<g>
														<g>
															<g>
																<g>
																	<g>
																		<g>
																			<g>
																				<g>
																					<g>
																						<g>
																							<defs>
																								<rect id="SVGID_39_" x="128.9" y="167.4" width="40" height="40"/>
																							</defs>
																							<clipPath id="SVGID_40_">
																								<use xlink:href="#SVGID_39_"  style="overflow:visible;"/>
																							</clipPath>
																							<path class="st47" d="M151.3,179.4c0.3,0.1,0.6,0.2,0.9,0.3c0.1,0,0.1,0.1,0.2,0.1l0,0
																								c0.8,0.4,1.5,0.8,2.1,1.4l0,0l0.1,0.1c0,0,0,0.1,0.1,0.1l0.1,0.1l0.1,0.1l0,0c0.6,0.7,1.2,1.5,1.5,2.3
																								c0,0,0,0,0,0.1s0.1,0.1,0.1,0.2c0,0,0,0.1,0.1,0.1v0.1c0.1,0.3,0.2,0.6,0.3,1c3.8,0.3,7.2,2.2,9.1,5.4
																								c0.2-1.1,0.4-2.3,0.4-3.5l0,0V187v-0.1l0,0v-0.1v-0.1c0-0.1,0-0.1,0-0.2c0-0.1,0-0.1,0-0.2
																								c0-0.1,0-0.1,0-0.2c0-0.1,0-0.1,0-0.2c0-0.1,0-0.1,0-0.2c0-0.1,0-0.1,0-0.2c0-0.1,0-0.1,0-0.2
																								c0-0.1,0-0.1,0-0.2c0-0.1,0-0.1,0-0.2c0-0.1,0-0.1,0-0.2c0-0.1,0-0.2-0.1-0.4c0-0.1,0-0.1,0-0.2
																								c0-0.1,0-0.1,0-0.2c0-0.1,0-0.1,0-0.2c0-0.1,0-0.1,0-0.2c0-0.1,0-0.1,0-0.2c0-0.1,0-0.1-0.1-0.2
																								c0-0.1,0-0.1-0.1-0.2c0-0.1,0-0.1-0.1-0.2c0-0.1,0-0.1-0.1-0.2c0-0.1,0-0.1-0.1-0.2c0-0.1,0-0.1-0.1-0.2
																								c0-0.1,0-0.1-0.1-0.2c0-0.1,0-0.1-0.1-0.2c0-0.1-0.1-0.1-0.1-0.2c0-0.1-0.1-0.2-0.1-0.3s0-0.1-0.1-0.2
																								c0-0.1-0.1-0.1-0.1-0.2c0-0.1-0.1-0.1-0.1-0.2c0-0.1-0.1-0.1-0.1-0.2c0-0.1-0.1-0.1-0.1-0.2
																								c0-0.1-0.1-0.1-0.1-0.2c0-0.1-0.1-0.1-0.1-0.2c0,0,0-0.1-0.1-0.1c0-0.1-0.1-0.1-0.1-0.2
																								c0-0.1-0.1-0.1-0.1-0.2c0-0.1-0.1-0.1-0.1-0.2l-0.1-0.1c0,0,0,0,0-0.1s-0.1-0.1-0.1-0.2c0-0.1,0-0.1-0.1-0.1
																								c-0.1-0.1-0.1-0.2-0.2-0.4c-0.1-0.1-0.1-0.2-0.2-0.4l-0.1-0.1c-0.1-0.1-0.1-0.2-0.2-0.2
																								c0-0.1-0.1-0.1-0.1-0.1c-0.1-0.1-0.1-0.1-0.2-0.2l-0.1-0.1c-0.1-0.1-0.1-0.1-0.1-0.2c0-0.1-0.1-0.1-0.1-0.1
																								c-0.1-0.1-0.1-0.1-0.2-0.2l-0.1-0.1c-0.1-0.1-0.1-0.1-0.2-0.2l-0.1-0.1c-0.1-0.1-0.2-0.2-0.3-0.3l0,0
																								c-0.1-0.1-0.2-0.2-0.2-0.3l-0.1-0.1c-0.1-0.1-0.1-0.1-0.2-0.2l-0.1-0.1c-0.1-0.1-0.1-0.1-0.2-0.1l0,0
																								l-0.1-0.1l-0.1-0.1c-0.1-0.1-0.1-0.1-0.2-0.2l0,0c0,0-0.1,0-0.1-0.1c-0.2-0.1-0.3-0.3-0.5-0.4l0,0
																								C156.8,174.3,153.4,176.3,151.3,179.4"/>
																						</g>
																					</g>
																				</g>
																			</g>
																		</g>
																	</g>
																</g>
															</g>
														</g>
													</g>
													<g>
														<g>
															<g>
																<g>
																	<g>
																		<g>
																			<g>
																				<g>
																					<g>
																						<g>
																							<defs>
																								<rect id="SVGID_41_" x="128.9" y="167.4" width="40" height="40"/>
																							</defs>
																							<clipPath id="SVGID_42_">
																								<use xlink:href="#SVGID_41_"  style="overflow:visible;"/>
																							</clipPath>
																							<path class="st48" d="M143.2,181.4c0.2-0.2,0.5-0.4,0.8-0.6c0,0,0.1-0.1,0.2-0.1l0,0
																								c0.7-0.5,1.5-0.9,2.3-1.1l0,0c0,0,0.1,0,0.2,0h0.1h0.1c0,0,0.1,0,0.2,0l0,0c0.9-0.2,1.8-0.3,2.8-0.2
																								c0,0,0,0,0.1,0s0.2,0,0.2,0h0.1h0.1c0.3,0.1,0.7,0.1,1,0.2c2.1-3.1,5.5-5.1,9.3-5.1
																								c-0.9-0.8-1.8-1.5-2.8-2.1l0,0c-0.1-0.1-0.2-0.1-0.3-0.1h-0.1l0,0h-0.1h-0.1c-0.1,0-0.1-0.1-0.2-0.1
																								c-0.1,0-0.1-0.1-0.2-0.1c-0.1,0-0.1-0.1-0.2-0.1c-0.1,0-0.1-0.1-0.2-0.1c-0.1,0-0.1-0.1-0.2-0.1
																								c-0.1,0-0.1-0.1-0.2-0.1c-0.1,0-0.1-0.1-0.2-0.1c-0.1,0-0.1,0-0.2-0.1c-0.1,0-0.1-0.1-0.2-0.1
																								c-0.1,0-0.1-0.1-0.2-0.1c-0.1-0.1-0.2-0.1-0.3-0.1s-0.1,0-0.2-0.1c-0.1,0-0.1-0.1-0.2-0.1
																								c-0.1,0-0.1,0-0.2-0.1c-0.1-0.1-0.1,0-0.2-0.1c-0.1-0.1-0.1,0-0.2-0.1c-0.1-0.1-0.1,0-0.2-0.1
																								c-0.1,0-0.1,0-0.2-0.1c-0.1,0-0.1,0-0.2-0.1c-0.1,0-0.1,0-0.2-0.1c-0.1,0-0.1,0-0.2-0.1c-0.1,0-0.1,0-0.2,0
																								c-0.1,0-0.1,0-0.2,0c-0.1,0-0.1,0-0.2-0.1c-0.1,0-0.2,0-0.2-0.1c-0.1,0-0.2,0-0.3-0.1c-0.1,0-0.1,0-0.2,0
																								c-0.1,0-0.1,0-0.2,0c-0.1,0-0.1,0-0.2,0c-0.1,0-0.1,0-0.2,0c-0.1,0-0.1,0-0.2,0c-0.1,0-0.1,0-0.2,0
																								c-0.1,0-0.1,0-0.2,0h-0.1c-0.1,0-0.1,0-0.2,0c-0.1,0-0.1,0-0.2,0c-0.1,0-0.2,0-0.3,0s-0.1,0-0.2,0h-0.1
																								c-0.1,0-0.2,0-0.2,0c-0.1,0-0.1,0-0.1,0c-0.1,0-0.3,0-0.4,0c-0.1,0-0.3,0-0.4,0c-0.1,0-0.1,0-0.1,0
																								c-0.1,0-0.2,0-0.3,0s-0.1,0-0.2,0c-0.1,0-0.2,0-0.3,0s-0.1,0-0.2,0c-0.1,0-0.2,0-0.2,0c-0.1,0-0.1,0-0.2,0
																								c-0.1,0-0.2,0-0.2,0h-0.1c-0.1,0-0.2,0-0.3,0h-0.1c-0.1,0-0.3,0.1-0.4,0.1l0,0c-0.1,0-0.2,0-0.4,0.1h-0.1
																								c-0.1,0-0.2,0-0.3,0.1c0,0-0.1,0-0.2,0c-0.1,0-0.1,0-0.2,0.1l0,0h-0.1h-0.1c-0.1,0-0.2,0-0.2,0.1l0,0H144
																								c-0.2,0.1-0.4,0.1-0.6,0.2l0,0C141.5,174,141.5,178,143.2,181.4"/>
																						</g>
																					</g>
																				</g>
																			</g>
																		</g>
																	</g>
																</g>
															</g>
														</g>
													</g>
												</g>
											</g>
										</g>
									</g>
								</g>
							</g>
						</g>
					</g>
				</g>
			</g>
		</g>
	</g>
</g>
<g>
	<g>
		<g>
			<g>
				<g>
					<g>
						<g>
							<g>
								<g>
									<g>
										<g>
											<g>
												<defs>
													<rect id="SVGID_43_" x="356.6" y="167.8" width="40" height="40"/>
												</defs>
												<clipPath id="SVGID_44_">
													<use xlink:href="#SVGID_43_"  style="overflow:visible;"/>
												</clipPath>
												<g class="st49">
													<g>
														<g>
															<g>
																<g>
																	<g>
																		<g>
																			<g>
																				<g>
																					<g>
																						<g>
																							<defs>
																								<rect id="SVGID_45_" x="356.6" y="167.8" width="40" height="40"/>
																							</defs>
																							<clipPath id="SVGID_46_">
																								<use xlink:href="#SVGID_45_"  style="overflow:visible;"/>
																							</clipPath>
																							<path class="st50" d="M368.5,189.7c-0.1-0.3-0.1-0.6-0.2-1c0-0.1,0-0.1,0-0.2l0,0c-0.1-0.9,0-1.7,0.2-2.6
																								l0,0c0-0.1,0-0.1,0-0.2v-0.1v-0.1c0-0.1,0-0.1,0-0.2l0,0c0.3-0.9,0.7-1.7,1.2-2.5l0,0c0-0.1,0.1-0.1,0.2-0.2
																								c0,0,0-0.1,0.1-0.1c0,0,0-0.1,0.1-0.1c0.2-0.3,0.4-0.5,0.7-0.7c-1.6-3.4-1.7-7.3,0.2-10.6
																								c-1.1,0.4-2.2,0.8-3.2,1.4l0,0c-0.1,0.1-0.2,0.1-0.3,0.2c0,0,0,0-0.1,0l0,0c0,0,0,0-0.1,0c0,0,0,0-0.1,0.1
																								c-0.1,0-0.1,0.1-0.2,0.1c0,0-0.1,0.1-0.2,0.1s-0.1,0.1-0.2,0.1c0,0-0.1,0.1-0.2,0.1s-0.1,0.1-0.2,0.1
																								c0,0-0.1,0.1-0.2,0.1s-0.1,0.1-0.2,0.1c0,0-0.1,0.1-0.2,0.1s-0.1,0.1-0.2,0.1l-0.1,0.1
																								c-0.1,0.1-0.2,0.2-0.3,0.2l-0.1,0.1c0,0-0.1,0.1-0.2,0.1l-0.1,0.1c0,0-0.1,0.1-0.2,0.1
																								c0,0.1-0.1,0.1-0.1,0.1c0,0.1-0.1,0.1-0.2,0.1s-0.1,0.1-0.2,0.1c0,0.1-0.1,0.1-0.1,0.1
																								c0,0.1-0.1,0.1-0.1,0.1l-0.1,0.1l-0.1,0.1l-0.1,0.1l-0.1,0.1c0,0.1-0.1,0.1-0.2,0.2
																								c-0.1,0.1-0.2,0.2-0.2,0.3l-0.1,0.1c0,0.1-0.1,0.1-0.1,0.2c0,0.1-0.1,0.1-0.1,0.1c0,0.1-0.1,0.1-0.1,0.2
																								l-0.1,0.1c0,0.1-0.1,0.1-0.1,0.2l-0.1,0.1c0,0,0,0.1-0.1,0.1c0,0.1-0.1,0.1-0.1,0.1c0,0.1-0.1,0.1-0.1,0.1
																								c0,0.1-0.1,0.1-0.2,0.2c0,0,0,0.1-0.1,0.1c0,0,0,0,0,0.1s-0.1,0.1-0.1,0.2c0,0,0,0.1-0.1,0.1
																								c-0.1,0.1-0.2,0.2-0.2,0.4s-0.1,0.2-0.2,0.4c0,0,0,0.1-0.1,0.1c0,0.1-0.1,0.2-0.1,0.2s0,0.1-0.1,0.1
																								c0,0.1-0.1,0.1-0.1,0.2c0,0.1,0,0.1-0.1,0.1c0,0.1-0.1,0.1-0.1,0.2c0,0.1,0,0.1-0.1,0.1
																								c0,0.1-0.1,0.2-0.1,0.2c0,0.1,0,0.1-0.1,0.1c0,0.1-0.1,0.2-0.1,0.3v0.1c0,0.1-0.1,0.3-0.2,0.4l0,0
																								c0,0.1-0.1,0.2-0.1,0.4c0,0.1,0,0.1,0,0.1c0,0.1,0,0.2-0.1,0.3c0,0.1,0,0.1,0,0.1c0,0.1,0,0.1-0.1,0.2l0,0
																								v0.1v0.1c0,0.1,0,0.1-0.1,0.2l0,0v0.1c0,0.2-0.1,0.4-0.2,0.6l0,0C361.3,187.5,364.7,189.4,368.5,189.7"/>
																						</g>
																					</g>
																				</g>
																			</g>
																		</g>
																	</g>
																</g>
															</g>
														</g>
													</g>
													<g>
														<g>
															<g>
																<g>
																	<g>
																		<g>
																			<g>
																				<g>
																					<g>
																						<g>
																							<defs>
																								<rect id="SVGID_47_" x="356.6" y="167.8" width="40" height="40"/>
																							</defs>
																							<clipPath id="SVGID_48_">
																								<use xlink:href="#SVGID_47_"  style="overflow:visible;"/>
																							</clipPath>
																							<path class="st51" d="M374.2,195.7c-0.3-0.1-0.6-0.2-0.9-0.3c0,0-0.1-0.1-0.2-0.1l0,0
																								c-0.8-0.4-1.5-0.8-2.1-1.4l0,0l-0.1-0.1c0,0,0-0.1-0.1-0.1c0,0,0-0.1-0.1-0.1l-0.1-0.1l0,0
																								c-0.6-0.7-1.2-1.5-1.5-2.3l0,0c0-0.1-0.1-0.1-0.1-0.2v-0.1v-0.1c-0.1-0.3-0.2-0.6-0.3-1
																								c-3.8-0.3-7.2-2.2-9.1-5.4c-0.2,1.1-0.4,2.3-0.4,3.5l0,0v0.3v0.1l0,0v0.1v0.1c0,0.1,0,0.1,0,0.2
																								c0,0.1,0,0.1,0,0.2c0,0.1,0,0.1,0,0.2c0,0.1,0,0.1,0,0.2c0,0.1,0,0.1,0,0.2c0,0.1,0,0.1,0,0.2
																								c0,0.1,0,0.1,0,0.2c0,0.1,0,0.1,0,0.2c0,0.1,0,0.1,0,0.2c0,0.1,0,0.1,0,0.2c0,0.1,0,0.2,0.1,0.4
																								c0,0.1,0,0.1,0,0.2c0,0.1,0,0.1,0,0.2c0,0.1,0,0.1,0,0.2c0,0.1,0,0.1,0,0.2c0,0.1,0,0.1,0,0.2s0,0.1,0,0.2
																								c0,0.1,0,0.1,0,0.2c0,0.1,0,0.1,0,0.2c0,0.1,0,0.1,0,0.2c0,0.1,0,0.1,0,0.2c0,0.1,0,0.1,0,0.2
																								c0,0.1,0,0.1,0,0.2c0,0.1,0,0.1,0.1,0.2c0,0.1,0,0.1,0.1,0.2c0,0.1,0.1,0.2,0.1,0.3s0,0.1,0.1,0.2
																								c0,0.1,0,0.1,0.1,0.2c0,0.1,0,0.1,0.1,0.2c0,0.1,0,0.1,0.1,0.2c0,0.1,0,0.1,0.1,0.2c0,0.1,0,0.1,0.1,0.2
																								c0,0.1,0,0.1,0.1,0.2v0.1c0,0.1,0,0.1,0.1,0.2c0,0.1,0,0.1,0.1,0.2c0,0.1,0.1,0.1,0.1,0.2c0,0,0,0.1,0.1,0.1
																								c0,0,0,0,0,0.1s0.1,0.1,0.1,0.2c0,0.1,0,0.1,0.1,0.1c0.1,0.1,0.1,0.2,0.2,0.4c0.1,0.1,0.1,0.2,0.2,0.4
																								c0,0,0,0.1,0.1,0.1c0,0.1,0.1,0.2,0.2,0.2l0.1,0.1c0,0.1,0.1,0.1,0.2,0.2l0.1,0.1c0,0.1,0.1,0.1,0.1,0.2
																								l0.1,0.1c0,0.1,0.1,0.1,0.2,0.2l0.1,0.1c0.1,0.1,0.1,0.1,0.2,0.2c0,0,0,0.1,0.1,0.1c0.1,0.1,0.2,0.2,0.3,0.3
																								l0,0c0.1,0.1,0.2,0.2,0.2,0.3l0.1,0.1c0.1,0.1,0.1,0.1,0.2,0.2l0.1,0.1c0,0.1,0.1,0.1,0.2,0.1l0,0
																								c0,0,0,0,0.1,0.1c0,0,0,0,0.1,0.1c0,0.1,0.1,0.1,0.2,0.2l0,0c0,0,0,0,0.1,0.1c0.2,0.1,0.3,0.3,0.5,0.4l0,0
																								C368.7,200.8,372.1,198.8,374.2,195.7"/>
																						</g>
																					</g>
																				</g>
																			</g>
																		</g>
																	</g>
																</g>
															</g>
														</g>
													</g>
													<g>
														<g>
															<g>
																<g>
																	<g>
																		<g>
																			<g>
																				<g>
																					<g>
																						<g>
																							<defs>
																								<rect id="SVGID_49_" x="356.6" y="167.8" width="40" height="40"/>
																							</defs>
																							<clipPath id="SVGID_50_">
																								<use xlink:href="#SVGID_49_"  style="overflow:visible;"/>
																							</clipPath>
																							<path class="st52" d="M382.2,193.8c-0.2,0.2-0.5,0.4-0.8,0.6c-0.1,0-0.1,0.1-0.2,0.1l0,0
																								c-0.7,0.5-1.5,0.9-2.3,1.1l0,0c-0.1,0-0.1,0-0.2,0h-0.1h-0.1c-0.1,0-0.1,0-0.2,0l0,0
																								c-0.9,0.2-1.8,0.3-2.8,0.2c0,0,0,0-0.1,0s-0.2,0-0.2,0h-0.1H375c-0.3-0.1-0.7-0.1-1-0.2
																								c-2.1,3.1-5.5,5.1-9.3,5.1c0.9,0.8,1.8,1.5,2.8,2.1l0,0c0.1,0.1,0.2,0.1,0.3,0.1c0,0,0,0,0.1,0l0,0
																								c0,0,0,0,0.1,0c0,0,0,0,0.1,0s0.1,0.1,0.2,0.1c0,0,0.1,0.1,0.2,0.1s0.1,0.1,0.2,0.1c0,0,0.1,0.1,0.2,0.1
																								s0.1,0.1,0.2,0.1c0,0,0.1,0.1,0.2,0.1s0.1,0.1,0.2,0.1c0,0,0.1,0.1,0.2,0.1s0.1,0.1,0.2,0.1
																								c0,0,0.1,0,0.2,0.1c0.1,0,0.2,0.1,0.3,0.1c0,0,0.1,0,0.2,0.1c0.1,0,0.1,0.1,0.2,0.1s0.1,0,0.2,0.1
																								s0.1,0,0.2,0.1s0.1,0,0.2,0.1s0.1,0,0.2,0.1c0.1,0,0.1,0,0.2,0.1c0.1,0,0.1,0,0.2,0.1c0.1,0,0.1,0,0.2,0.1
																								c0.1,0,0.1,0,0.2,0s0.1,0,0.2,0.1c0.1,0,0.1,0,0.2,0s0.1,0,0.2,0.1c0.1,0,0.1,0,0.2,0.1
																								c0.1,0,0.2,0.1,0.3,0.1c0.1,0,0.1,0,0.2,0s0.1,0,0.2,0s0.1,0,0.2,0s0.2,0,0.2,0s0.1,0,0.2,0s0.2,0,0.2,0
																								c0.1,0,0.1,0,0.2,0h0.1c0.1,0,0.1,0,0.2,0s0.1,0,0.2,0s0.2,0,0.3,0s0.1,0,0.2,0h0.1c0.1,0,0.2,0,0.2,0h0.1
																								c0.2,0,0.3,0,0.4,0s0.3,0,0.4,0s0.1,0,0.1,0c0.1,0,0.2,0,0.3,0c0.1,0,0.1,0,0.2,0s0.2,0,0.3,0
																								c0.1,0,0.1,0,0.2,0s0.2,0,0.2,0c0.1,0,0.1,0,0.2,0s0.2,0,0.2,0c0.1,0,0.1,0,0.1,0c0.1,0,0.2,0,0.3,0
																								s0.1,0,0.1,0c0.1,0,0.3,0,0.4-0.1l0,0c0.1,0,0.2-0.1,0.4-0.1c0.1,0,0.1,0,0.1,0c0.1,0,0.2,0,0.3-0.1
																								c0.1,0,0.1,0,0.2,0s0.1,0,0.2-0.1l0,0h0.1h0.1c0.1,0,0.2,0,0.2-0.1l0,0h0.1c0.2-0.1,0.4-0.1,0.6-0.2l0,0
																								C384,201.2,383.9,197.2,382.2,193.8"/>
																						</g>
																					</g>
																				</g>
																			</g>
																		</g>
																	</g>
																</g>
															</g>
														</g>
													</g>
													<g>
														<g>
															<g>
																<g>
																	<g>
																		<g>
																			<g>
																				<g>
																					<g>
																						<g>
																							<defs>
																								<rect id="SVGID_51_" x="356.6" y="167.8" width="40" height="40"/>
																							</defs>
																							<clipPath id="SVGID_52_">
																								<use xlink:href="#SVGID_51_"  style="overflow:visible;"/>
																							</clipPath>
																							<path class="st53" d="M384.6,185.9c0.1,0.3,0.1,0.6,0.2,1c0,0.1,0,0.1,0,0.2l0,0c0.1,0.9,0,1.7-0.2,2.6l0,0
																								c0,0.1,0,0.1,0,0.2v0.1v0.1c0,0.1,0,0.1,0,0.2l0,0c-0.3,0.9-0.7,1.7-1.2,2.5l0,0c-0.1,0.1-0.1,0.1-0.2,0.2
																								l-0.1,0.1l-0.1,0.1c-0.2,0.3-0.4,0.5-0.7,0.7c1.6,3.4,1.7,7.3-0.2,10.6c1.1-0.4,2.2-0.8,3.2-1.4l0,0
																								c0.1-0.1,0.2-0.1,0.3-0.2c0,0,0,0,0.1,0l0,0h0.1c0,0,0.1,0,0.1-0.1c0.1,0,0.1-0.1,0.2-0.1s0.1-0.1,0.2-0.1
																								s0.1-0.1,0.2-0.1s0.1-0.1,0.2-0.1s0.1-0.1,0.2-0.1s0.1-0.1,0.2-0.1s0.1-0.1,0.2-0.1l0.1-0.1
																								c0.1-0.1,0.1-0.1,0.2-0.1l0.1-0.1c0.1-0.1,0.2-0.2,0.3-0.2s0.1-0.1,0.1-0.1c0.1,0,0.1-0.1,0.2-0.1
																								c0.1-0.1,0.1-0.1,0.1-0.1c0.1-0.1,0.1-0.1,0.2-0.1s0.1-0.1,0.1-0.1s0.1-0.1,0.2-0.1c0-0.1,0.1-0.1,0.1-0.1
																								l0.1-0.1c0.1-0.1,0.1-0.1,0.2-0.1c0-0.1,0.1-0.1,0.1-0.1c0-0.1,0.1-0.1,0.1-0.1l0.1-0.1l0.1-0.1
																								c0.1-0.1,0.1-0.1,0.2-0.2c0.1-0.1,0.2-0.2,0.2-0.3l0.1-0.1c0-0.1,0.1-0.1,0.1-0.2c0-0.1,0.1-0.1,0.1-0.1
																								c0.1-0.1,0.1-0.1,0.1-0.2l0.1-0.1c0-0.1,0.1-0.1,0.1-0.2c0-0.1,0.1-0.1,0.1-0.1l0.1-0.1
																								c0-0.1,0.1-0.1,0.1-0.1c0-0.1,0.1-0.1,0.1-0.1c0.1-0.1,0.1-0.1,0.1-0.2l0.1-0.1c0,0,0,0,0-0.1
																								s0.1-0.1,0.1-0.2l0.1-0.1c0.1-0.1,0.2-0.2,0.2-0.4s0.1-0.2,0.2-0.4c0,0,0-0.1,0.1-0.1
																								c0.1-0.1,0.1-0.2,0.1-0.2s0-0.1,0.1-0.1c0-0.1,0.1-0.1,0.1-0.2c0-0.1,0-0.1,0.1-0.1c0-0.1,0.1-0.1,0.1-0.2
																								c0-0.1,0.1-0.1,0.1-0.1c0-0.1,0.1-0.2,0.1-0.2l0.1-0.1c0-0.1,0.1-0.2,0.1-0.3c0,0,0-0.1,0.1-0.1
																								c0.1-0.1,0.1-0.3,0.1-0.4l0,0c0-0.1,0.1-0.2,0.1-0.4c0,0,0-0.1,0.1-0.1c0-0.1,0.1-0.2,0.1-0.3s0-0.1,0.1-0.1
																								c0-0.1,0-0.1,0.1-0.2c0,0,0,0,0-0.1v-0.1v-0.1c0-0.1,0-0.1,0.1-0.2l0,0v-0.1c0.1-0.2,0.1-0.4,0.2-0.6l0,0
																								C391.8,188,388.4,186.2,384.6,185.9"/>
																						</g>
																					</g>
																				</g>
																			</g>
																		</g>
																	</g>
																</g>
															</g>
														</g>
													</g>
													<g>
														<g>
															<g>
																<g>
																	<g>
																		<g>
																			<g>
																				<g>
																					<g>
																						<g>
																							<defs>
																								<rect id="SVGID_53_" x="356.6" y="167.8" width="40" height="40"/>
																							</defs>
																							<clipPath id="SVGID_54_">
																								<use xlink:href="#SVGID_53_"  style="overflow:visible;"/>
																							</clipPath>
																							<path class="st54" d="M379,179.8c0.3,0.1,0.6,0.2,0.9,0.3c0.1,0,0.1,0.1,0.2,0.1l0,0
																								c0.8,0.4,1.5,0.8,2.1,1.4l0,0l0.1,0.1c0,0,0,0.1,0.1,0.1l0.1,0.1l0.1,0.1l0,0c0.6,0.7,1.2,1.5,1.5,2.3
																								c0,0,0,0,0,0.1s0.1,0.1,0.1,0.2c0,0,0,0.1,0.1,0.1v0.1c0.1,0.3,0.2,0.6,0.3,1c3.8,0.3,7.2,2.2,9.1,5.4
																								c0.2-1.1,0.4-2.3,0.4-3.5l0,0v-0.3v-0.1l0,0v-0.1v-0.1c0-0.1,0-0.1,0-0.2c0-0.1,0-0.1,0-0.2
																								c0-0.1,0-0.1,0-0.2c0-0.1,0-0.1,0-0.2c0-0.1,0-0.1,0-0.2c0-0.1,0-0.1,0-0.2c0-0.1,0-0.1,0-0.2
																								c0-0.1,0-0.1,0-0.2c0-0.1,0-0.1,0-0.2c0-0.1,0-0.1,0-0.2c0-0.1,0-0.2-0.1-0.4c0-0.1,0-0.1,0-0.2
																								c0-0.1,0-0.1,0-0.2c0-0.1,0-0.1,0-0.2c0-0.1,0-0.1,0-0.2c0-0.1,0-0.1,0-0.2c0-0.1,0-0.1-0.1-0.2
																								c0-0.1,0-0.1-0.1-0.2c0-0.1,0-0.1-0.1-0.2c0-0.1,0-0.1-0.1-0.2c0-0.1,0-0.1-0.1-0.2c0-0.1,0-0.1-0.1-0.2
																								c0-0.1,0-0.1-0.1-0.2c0-0.1,0-0.1-0.1-0.2c0-0.1-0.1-0.1-0.1-0.2c0-0.1-0.1-0.2-0.1-0.3s0-0.1-0.1-0.2
																								c0-0.1-0.1-0.1-0.1-0.2c0-0.1-0.1-0.1-0.1-0.2c0-0.1-0.1-0.1-0.1-0.2c0-0.1-0.1-0.1-0.1-0.2
																								c0-0.1-0.1-0.1-0.1-0.2c0-0.1-0.1-0.1-0.1-0.2c0,0,0-0.1-0.1-0.1c0-0.1-0.1-0.1-0.1-0.2
																								c0-0.1-0.1-0.1-0.1-0.2c0-0.1-0.1-0.1-0.1-0.2l-0.1-0.1c0,0,0,0,0-0.1s-0.1-0.1-0.1-0.2c0-0.1,0-0.1-0.1-0.1
																								c-0.1-0.1-0.1-0.2-0.2-0.4c-0.1-0.1-0.1-0.2-0.2-0.4l-0.1-0.1c-0.1-0.1-0.1-0.2-0.2-0.2
																								c0-0.1-0.1-0.1-0.1-0.1c-0.1-0.1-0.1-0.1-0.2-0.2l-0.1-0.1c-0.1-0.1-0.1-0.1-0.1-0.2c0-0.1-0.1-0.1-0.1-0.1
																								c-0.1-0.1-0.1-0.1-0.2-0.2l-0.1-0.1c-0.1-0.1-0.1-0.1-0.2-0.2l-0.1-0.1c-0.1-0.1-0.2-0.2-0.3-0.3l0,0
																								c-0.1-0.1-0.2-0.2-0.2-0.3l-0.1-0.1c-0.1-0.1-0.1-0.1-0.2-0.2l-0.1-0.1c-0.1-0.1-0.1-0.1-0.2-0.1l0,0
																								l-0.1-0.1l-0.1-0.1c-0.1-0.1-0.1-0.1-0.2-0.2l0,0c0,0-0.1,0-0.1-0.1c-0.2-0.1-0.3-0.3-0.5-0.4l0,0
																								C384.5,174.7,381.1,176.7,379,179.8"/>
																						</g>
																					</g>
																				</g>
																			</g>
																		</g>
																	</g>
																</g>
															</g>
														</g>
													</g>
													<g>
														<g>
															<g>
																<g>
																	<g>
																		<g>
																			<g>
																				<g>
																					<g>
																						<g>
																							<defs>
																								<rect id="SVGID_55_" x="356.6" y="167.8" width="40" height="40"/>
																							</defs>
																							<clipPath id="SVGID_56_">
																								<use xlink:href="#SVGID_55_"  style="overflow:visible;"/>
																							</clipPath>
																							<path class="st55" d="M370.9,181.8c0.2-0.2,0.5-0.4,0.8-0.6c0,0,0.1-0.1,0.2-0.1l0,0
																								c0.7-0.5,1.5-0.9,2.3-1.1l0,0c0,0,0.1,0,0.2,0h0.1h0.1c0,0,0.1,0,0.2,0l0,0c0.9-0.2,1.8-0.3,2.8-0.2
																								c0,0,0,0,0.1,0s0.2,0,0.2,0h0.1h0.1c0.3,0.1,0.7,0.1,1,0.2c2.1-3.1,5.5-5.1,9.3-5.1
																								c-0.9-0.8-1.8-1.5-2.8-2.1l0,0c-0.1-0.1-0.2-0.1-0.3-0.1h-0.1l0,0h-0.1H385c-0.1,0-0.1-0.1-0.2-0.1
																								s-0.1-0.1-0.2-0.1s-0.1-0.1-0.2-0.1s-0.1-0.1-0.2-0.1s-0.1-0.1-0.2-0.1s-0.1-0.1-0.2-0.1s-0.1-0.1-0.2-0.1
																								s-0.1,0-0.2-0.1c-0.1,0-0.1-0.1-0.2-0.1s-0.1-0.1-0.2-0.1c-0.1-0.1-0.2-0.1-0.3-0.1s-0.1,0-0.2-0.1
																								c-0.1,0-0.1-0.1-0.2-0.1s-0.1,0-0.2-0.1s-0.1,0-0.2-0.1s-0.1,0-0.2-0.1s-0.1,0-0.2-0.1c-0.1,0-0.1,0-0.2-0.1
																								c-0.1,0-0.1,0-0.2-0.1c-0.1,0-0.1,0-0.2-0.1c-0.1,0-0.1,0-0.2-0.1c-0.1,0-0.1,0-0.2,0s-0.1,0-0.2,0
																								s-0.1,0-0.2-0.1c-0.1,0-0.2,0-0.2-0.1c-0.1,0-0.2,0-0.3-0.1c-0.1,0-0.1,0-0.2,0s-0.1,0-0.2,0s-0.1,0-0.2,0
																								s-0.1,0-0.2,0s-0.1,0-0.2,0s-0.1,0-0.2,0s-0.1,0-0.2,0h-0.1c-0.1,0-0.1,0-0.2,0s-0.1,0-0.2,0s-0.2,0-0.3,0
																								s-0.1,0-0.2,0h-0.1c-0.1,0-0.2,0-0.2,0c-0.1,0-0.1,0-0.1,0c-0.1,0-0.3,0-0.4,0s-0.3,0-0.4,0s-0.1,0-0.1,0
																								c-0.1,0-0.2,0-0.3,0s-0.1,0-0.2,0s-0.2,0-0.3,0s-0.1,0-0.2,0s-0.2,0-0.2,0c-0.1,0-0.1,0-0.2,0s-0.2,0-0.2,0
																								h-0.1c-0.1,0-0.2,0-0.3,0h-0.1c-0.1,0-0.3,0.1-0.4,0.1l0,0c-0.1,0-0.2,0-0.4,0.1h-0.1c-0.1,0-0.2,0-0.3,0.1
																								c0,0-0.1,0-0.2,0s-0.1,0-0.2,0.1l0,0h-0.1H372c-0.1,0-0.2,0-0.2,0.1l0,0h-0.1c-0.2,0.1-0.4,0.1-0.6,0.2l0,0
																								C369.2,174.4,369.2,178.4,370.9,181.8"/>
																						</g>
																					</g>
																				</g>
																			</g>
																		</g>
																	</g>
																</g>
															</g>
														</g>
													</g>
												</g>
											</g>
										</g>
									</g>
								</g>
							</g>
						</g>
					</g>
				</g>
			</g>
		</g>
	</g>
</g>
<circle class="st2" cx="330.3" cy="305.6" r="32"/>
<path class="st56" d="M330.3,338.1c-17.9,0-32.5-14.6-32.5-32.5s14.6-32.5,32.5-32.5s32.5,14.6,32.5,32.5S348.2,338.1,330.3,338.1z
	 M330.3,274.1c-17.4,0-31.5,14.1-31.5,31.5s14.1,31.5,31.5,31.5s31.5-14.1,31.5-31.5S347.7,274.1,330.3,274.1z"/>
<g>
	<path id="bigger_rectangle_1_" class="st57" d="M344.7,321.6h-28.8c-0.9,0-1.6-0.7-1.6-1.6v-28.8c0-0.9,0.7-1.6,1.6-1.6h28.8
		c0.9,0,1.6,0.7,1.6,1.6V320C346.3,320.9,345.6,321.6,344.7,321.6z"/>
	<path id="black_ractangle_1_" d="M341.7,318.6h-22.8c-0.9,0-1.6-0.7-1.6-1.6v-22.8c0-0.9,0.7-1.6,1.6-1.6h22.8
		c0.9,0,1.6,0.7,1.6,1.6V317C343.3,317.9,342.6,318.6,341.7,318.6z"/>
	<rect id="second_vault_handle_1_" x="315.8" y="297.1" class="st2" width="3" height="5"/>
	<rect id="first_vault_handle_2_" x="315.8" y="309.1" class="st2" width="3" height="5"/>
	<circle id="big_white_circle_1_" class="st2" cx="331.3" cy="305.6" r="10"/>
	<circle id="blue_circle_1_" class="st57" cx="331.3" cy="305.6" r="7"/>
	<rect id="white_handle_1_" x="331.3" y="304.1" class="st2" width="12" height="3"/>
	<circle id="black_circle_1_" cx="331.3" cy="305.6" r="3"/>
	<circle id="white_circle_1_" class="st2" cx="333.3" cy="302.6" r="1.5"/>
</g>
<g id="Text">
	<path class="st58" d="M427.2,300.1c-0.6,0.3-1,0.9-1.1,1.5l2.9,1.7l-7.4,4.4l-7.4-4.4l2.8-1.6c-0.1-0.6-0.4-1.2-1-1.5l-5.6,3.2
		v12.4l11.2,6.4l11.2-6.7v-12.2L427.2,300.1z M420.6,319.5l-8-5v-10.2l8,5V319.5z M430.8,314.3l-8,5.1v-10.2l8-5V314.3z"/>
	<path class="st58" d="M426.4,299.6l-2-1.1c-0.1,0.6-0.3,1.2-0.7,1.7l1.7,1C425.5,300.6,425.8,300,426.4,299.6z"/>
	<path class="st58" d="M419.5,298.2v0.1c0,0.6,0.2,1.1,0.7,1.5l1.3-0.7l1.1,0.6c0.4-0.4,0.6-0.9,0.6-1.4c0-0.1,0-0.3-0.1-0.4
		l-1.6-0.9L419.5,298.2z M418,301.2l1.7-1c-0.4-0.4-0.7-1-0.8-1.5l-1.8,1C417.5,300.1,417.8,300.6,418,301.2z"/>
	<circle class="st59" cx="421.6" cy="306.8" r="1.9"/>
	<circle class="st60" cx="421.6" cy="289.8" r="1.9"/>
	<circle class="st60" cx="428" cy="301.8" r="1.9"/>
	<circle class="st60" cx="415.3" cy="301.8" r="1.9"/>
	<circle class="st59" cx="428" cy="293.3" r="1.9"/>
	<circle class="st59" cx="415.4" cy="293.5" r="1.9"/>
	<path class="st8" d="M430,301.8c0.1-1-0.7-1.8-1.7-1.9c-0.1,0-0.1,0-0.2,0v3.7c1,0,1.8-0.7,1.9-1.7C430,301.9,430,301.8,430,301.8z
		"/>
	<path class="st8" d="M426.2,301.8c-0.1,1,0.7,1.8,1.7,1.9c0.1,0,0.1,0,0.2,0V300C427.1,300,426.2,300.8,426.2,301.8z"/>
	<path class="st60" d="M421.6,296.5c-1,0-1.9,0.8-1.9,1.8l0,0c-0.1,1,0.7,1.8,1.7,1.9c0.1,0,0.1,0,0.2,0c1,0.1,1.8-0.7,1.9-1.7
		c0-0.1,0-0.1,0-0.2c0.1-1-0.7-1.8-1.7-1.9C421.7,296.5,421.6,296.5,421.6,296.5z"/>
</g>
<g>
	<rect x="246.1" y="42.3" width="8" height="2"/>
	<rect x="246.1" y="38.3" width="12" height="2"/>
	<rect x="246.1" y="34.3" width="12" height="2"/>
	<path d="M242.8,60.3l5.6-10l7.4,6.5c0.5,0.4,1.1,0.6,1.7,0.5s1.1-0.5,1.4-1l7-10.4l-1.7-1.1l-7,10.4l-0.1,0.1l-7.4-6.5
		c-0.5-0.4-1.1-0.6-1.7-0.5c-0.6,0.1-1.1,0.5-1.4,1l-4.6,8.1V34.3h-2v26c0,1.1,0.9,2,2,2h26v-2H242.8z"/>
	<rect id="_x3C_Transparent_Rectangle_x3E__810_" x="238.1" y="32.3" class="st8" width="32" height="32"/>
</g>
<g>
	<rect x="254.2" y="124.5" class="st4" width="1" height="22.5"/>
	<polyline class="st3" points="260.7,141.4 254.7,147 248.7,141.4 	"/>
	<polyline class="st3" points="260.7,130.1 254.7,124.5 248.7,130.1 	"/>
</g>
<text id="headerSVG.ciPipeline" transform="matrix(1 0 0 1 220.0815 239.05)" class="st61 st62">CI Pipeline</text>
<text id="headerSVG.cdPipeline" transform="matrix(1 0 0 1 446.8273 239.05)" class="st61 st62">CD Pipeline</text>
<text id="headerSVG.inventory" transform="matrix(1 0 0 1 345.6891 239.0497)" class="st61 st62">Inventory</text>
<text id="headerSVG.repo1" transform="matrix(1 0 0 1 358.0891 255.8497)" class="st61 st62">Repo</text>
<text id="headerSVG.code" transform="matrix(1 0 0 1 131.7168 239.05)" class="st61 st62">Code</text>
<text id="headerSVG.repo2" transform="matrix(1 0 0 1 131.5168 255.85)" class="st61 st62">Repo</text>
<text id="headerSVG.issue" transform="matrix(0.9998 2.000000e-02 -2.000000e-02 0.9998 28.3458 239.0478)" class="st61 st62">Issue </text>
<text id="headerSVG.tracker" transform="matrix(0.9998 2.000000e-02 -2.000000e-02 0.9998 22.5109 255.7345)" class="st61 st62">Tracker</text>
<text id="headerSVG.kubernetes" transform="matrix(1 0 0 1 554.65 239.0495)" class="st61 st62">Kubernetes</text>
<rect x="526.4" y="184.8" class="st0" width="29.3" height="4"/>
<text id="headerSVG.prPipeline" transform="matrix(1 0 0 1 111.8001 96.6001)" class="st63 st62">PR Pipeline</text>
<text id="headerSVG.codeRisk" transform="matrix(1 0 0 1 221.451 98.0001)" class="st63 st62">Code Risk</text>
<text id="headerSVG.analyzer" transform="matrix(1 0 0 1 225.151 114.8001)" class="st63 st62">Analyzer</text>
<text id="headerSVG.devops" transform="matrix(1 0 0 1 351.0676 97.5995)" class="st63 st62">DevOps</text>
<text id="headerSVG.insights" transform="matrix(1 0 0 1 349.7676 114.3995)" class="st63 st62">Insights</text>
<text id="headerSVG.secrets" transform="matrix(1 0 0 1 304.066 359.1411)" class="st63 st62">Secrets</text>
<text id="headerSVG.manager" transform="matrix(1 0 0 1 300.566 375.9411)" class="st63 st62">Manager</text>
<text id="headerSVG.keyProtect" transform="matrix(1 0 0 1 386.7487 358.5756)" class="st63 st62">Key Protect</text>
<g>
	<line class="st64" x1="423.4" y1="177.7" x2="433.3" y2="187.3"/>
	<line class="st64" x1="433.2" y1="186.1" x2="423.6" y2="196"/>
</g>
<g>
	<line class="st64" x1="314.4" y1="177.7" x2="324.3" y2="187.3"/>
	<line class="st64" x1="324.2" y1="186.1" x2="314.6" y2="196"/>
</g>
<g>
	<line class="st64" x1="193.4" y1="177.7" x2="203.3" y2="187.3"/>
	<line class="st64" x1="203.2" y1="186.1" x2="193.6" y2="196"/>
</g>
<g>
	<line class="st64" x1="93.4" y1="177.7" x2="103.3" y2="187.3"/>
	<line class="st64" x1="103.2" y1="186.1" x2="93.6" y2="196"/>
</g>
<g>
	<line class="st64" x1="548.4" y1="177.7" x2="558.3" y2="187.3"/>
	<line class="st64" x1="558.2" y1="186.1" x2="548.6" y2="196"/>
</g>
</svg>
