<?xml version="1.0" encoding="utf-8"?>
<!-- Generator: Adobe Illustrator 25.0.0, SVG Export Plug-In . SVG Version: 6.00 Build 0)  -->
<svg version="1.1" xmlns="http://www.w3.org/2000/svg" xmlns:xlink="http://www.w3.org/1999/xlink" x="0px" y="0px" width="731px"
	 height="295px" viewBox="0 0 731 295" style="enable-background:new 0 0 731 295;" xml:space="preserve">
<style type="text/css">
	.st0{fill:#F4F4F4;stroke:#0F62FE;stroke-width:2;stroke-miterlimit:10;}
	.st1{fill:none;stroke:#0F62FE;stroke-width:2;stroke-miterlimit:10;}
	.st2{fill:none;stroke:#979797;stroke-width:2;stroke-miterlimit:10;stroke-dasharray:4,4;}
	.st3{fill:none;stroke:#2467F4;stroke-width:2;stroke-miterlimit:10;}
	.st4{fill:none;stroke:#969696;stroke-miterlimit:10;stroke-dasharray:4,4;}
	.st5{fill:none;stroke:#969696;stroke-width:2;stroke-miterlimit:10;}
	.st6{fill:#FFFFFF;stroke:#000000;stroke-miterlimit:10;}
	.st7{fill:#FFFFFF;stroke:#0F62FE;stroke-width:2;stroke-miterlimit:10;}
	.st8{fill:#FD783D;}
	.st9{fill:#FDA578;}
	.st10{fill:none;}
	.st11{fill:#1CB3A0;}
	.st12{fill:#4AD5C3;}
	.st13{filter:url(#Adobe_OpacityMaskFilter);}
	.st14{fill:#FFFFFF;}
	.st15{fill:url(#SVGID_1_);}
	.st16{mask:url(#ad64d206-7b2b-4368-b62d-adee73950f0d_2_);}
	.st17{fill:url(#SVGID_2_);}
	.st18{fill:#032068;}
	.st19{clip-path:url(#SVGID_4_);}
	.st20{clip-path:url(#SVGID_6_);}
	.st21{fill:#273237;}
	.st22{clip-path:url(#SVGID_8_);}
	.st23{fill:#3E4B53;}
	.st24{clip-path:url(#SVGID_10_);}
	.st25{fill:#3881A1;}
	.st26{clip-path:url(#SVGID_12_);}
	.st27{fill:#4BABCC;}
	.st28{clip-path:url(#SVGID_14_);}
	.st29{fill:#357A69;}
	.st30{clip-path:url(#SVGID_16_);}
	.st31{fill:#4EAD99;}
	.st32{filter:url(#Adobe_OpacityMaskFilter_1_);}
	.st33{fill:url(#SVGID_17_);}
	.st34{mask:url(#Color_4_);fill:url(#Color_6_);}
	.st35{fill:#4090FC;}
	.st36{filter:url(#Adobe_OpacityMaskFilter_2_);}
	.st37{fill:url(#SVGID_19_);}
	.st38{mask:url(#SVGID_18_);fill:url(#SVGID_20_);}
	.st39{fill:#2E3737;}
	.st40{fill:#586565;}
	.st41{fill:#FCE77F;}
	.st42{fill:#FCD432;}
	.st43{fill:#030506;}
	.st44{fill:#3D4747;}
	.st45{fill:#975AD1;}
	.st46{fill:#FC42A0;}
	.st47{fill:#64BC46;}
	.st48{clip-path:url(#SVGID_22_);}
	.st49{clip-path:url(#SVGID_24_);}
	.st50{clip-path:url(#SVGID_26_);}
	.st51{clip-path:url(#SVGID_28_);}
	.st52{clip-path:url(#SVGID_30_);}
	.st53{clip-path:url(#SVGID_32_);}
	.st54{clip-path:url(#SVGID_34_);}
	.st55{filter:url(#Adobe_OpacityMaskFilter_3_);}
	.st56{fill:url(#SVGID_36_);}
	.st57{mask:url(#SVGID_35_);fill:url(#SVGID_37_);}
	.st58{clip-path:url(#SVGID_39_);}
	.st59{clip-path:url(#SVGID_41_);}
	.st60{clip-path:url(#SVGID_43_);}
	.st61{clip-path:url(#SVGID_45_);}
	.st62{clip-path:url(#SVGID_47_);}
	.st63{clip-path:url(#SVGID_49_);}
	.st64{clip-path:url(#SVGID_51_);}
	.st65{clip-path:url(#SVGID_53_);}
	.st66{clip-path:url(#SVGID_55_);}
	.st67{clip-path:url(#SVGID_57_);}
	.st68{clip-path:url(#SVGID_59_);}
	.st69{clip-path:url(#SVGID_61_);}
	.st70{clip-path:url(#SVGID_63_);}
	.st71{clip-path:url(#SVGID_65_);}
	.st72{fill:none;stroke:#000000;stroke-miterlimit:10;}
	.st73{clip-path:url(#SVGID_67_);}
	.st74{clip-path:url(#SVGID_69_);}
	.st75{clip-path:url(#SVGID_71_);}
	.st76{clip-path:url(#SVGID_73_);}
	.st77{clip-path:url(#SVGID_75_);}
	.st78{clip-path:url(#SVGID_77_);}
	.st79{clip-path:url(#SVGID_79_);}
	.st80{fill-rule:evenodd;clip-rule:evenodd;fill:#36C5F0;}
	.st81{fill-rule:evenodd;clip-rule:evenodd;fill:#2EB67D;}
	.st82{fill-rule:evenodd;clip-rule:evenodd;fill:#ECB22E;}
	.st83{fill-rule:evenodd;clip-rule:evenodd;fill:#E01E5A;}
	.st84{clip-path:url(#SVGID_81_);}
	.st85{clip-path:url(#SVGID_83_);}
	.st86{clip-path:url(#SVGID_85_);}
	.st87{clip-path:url(#SVGID_87_);}
	.st88{clip-path:url(#SVGID_89_);}
	.st89{clip-path:url(#SVGID_91_);}
	.st90{clip-path:url(#SVGID_93_);}
	.st91{fill:#FBFBFB;}
	.st92{fill:#F5C144;}
	.st93{filter:url(#Adobe_OpacityMaskFilter_4_);}
	.st94{fill:url(#SVGID_95_);}
	.st95{mask:url(#SVGID_94_);fill:url(#SVGID_96_);}
	.st96{clip-path:url(#SVGID_98_);}
	.st97{clip-path:url(#SVGID_100_);}
	.st98{clip-path:url(#SVGID_102_);}
	.st99{clip-path:url(#SVGID_104_);}
	.st100{clip-path:url(#SVGID_106_);}
	.st101{clip-path:url(#SVGID_108_);}
	.st102{clip-path:url(#SVGID_110_);}
	.st103{fill:#FFFFFF;stroke:#2467F4;stroke-width:2;stroke-miterlimit:10;}
	.st104{fill:#EC7F4C;}
	.st105{fill:#F0A780;}
	.st106{fill:#53AF9F;}
	.st107{fill:#73D1C2;}
	.st108{fill:#303737;}
	.st109{fill:#5A6565;}
	.st110{fill:#F8E58C;}
	.st111{fill:#F5D356;}
	.st112{fill:#3F4747;}
	.st113{fill:#8D61C9;}
	.st114{fill:#E8559D;}
	.st115{fill:#7AB757;}
	.st116{fill:#2B73F5;}
	.st117{clip-path:url(#SVGID_112_);}
	.st118{clip-path:url(#SVGID_114_);}
	.st119{clip-path:url(#SVGID_116_);}
	.st120{clip-path:url(#SVGID_118_);}
	.st121{clip-path:url(#SVGID_120_);}
	.st122{clip-path:url(#SVGID_122_);}
	.st123{clip-path:url(#SVGID_124_);}
	.st124{fill:#5291F3;}
	.st125{filter:url(#Adobe_OpacityMaskFilter_5_);}
	.st126{fill:url(#SVGID_126_);}
	.st127{mask:url(#SVGID_125_);fill:url(#SVGID_127_);}
	.st128{fill:#74A0D0;}
	.st129{clip-path:url(#SVGID_129_);}
	.st130{clip-path:url(#SVGID_131_);}
	.st131{clip-path:url(#SVGID_133_);}
	.st132{clip-path:url(#SVGID_135_);}
	.st133{clip-path:url(#SVGID_137_);}
	.st134{clip-path:url(#SVGID_139_);}
	.st135{clip-path:url(#SVGID_141_);}
	.st136{clip-path:url(#SVGID_143_);}
	.st137{clip-path:url(#SVGID_145_);}
	.st138{clip-path:url(#SVGID_147_);}
	.st139{clip-path:url(#SVGID_149_);}
	.st140{clip-path:url(#SVGID_151_);}
	.st141{clip-path:url(#SVGID_153_);}
	.st142{clip-path:url(#SVGID_155_);}
	.st143{clip-path:url(#SVGID_157_);}
	.st144{clip-path:url(#SVGID_159_);}
	.st145{clip-path:url(#SVGID_161_);}
	.st146{clip-path:url(#SVGID_163_);}
	.st147{clip-path:url(#SVGID_165_);}
	.st148{clip-path:url(#SVGID_167_);}
	.st149{clip-path:url(#SVGID_169_);}
	.st150{filter:url(#Adobe_OpacityMaskFilter_6_);}
	.st151{fill:url(#SVGID_171_);}
	.st152{mask:url(#SVGID_170_);fill:url(#SVGID_172_);}
	.st153{clip-path:url(#SVGID_174_);}
	.st154{clip-path:url(#SVGID_176_);}
	.st155{clip-path:url(#SVGID_178_);}
	.st156{clip-path:url(#SVGID_180_);}
	.st157{clip-path:url(#SVGID_182_);}
	.st158{clip-path:url(#SVGID_184_);}
	.st159{clip-path:url(#SVGID_186_);}
	.st160{clip-path:url(#SVGID_188_);}
	.st161{clip-path:url(#SVGID_190_);}
	.st162{clip-path:url(#SVGID_192_);}
	.st163{clip-path:url(#SVGID_194_);}
	.st164{clip-path:url(#SVGID_196_);}
	.st165{clip-path:url(#SVGID_198_);}
	.st166{clip-path:url(#SVGID_200_);}
	.st167{clip-path:url(#SVGID_202_);}
	.st168{clip-path:url(#SVGID_204_);}
	.st169{clip-path:url(#SVGID_206_);}
	.st170{clip-path:url(#SVGID_208_);}
	.st171{clip-path:url(#SVGID_210_);}
	.st172{clip-path:url(#SVGID_212_);}
	.st173{clip-path:url(#SVGID_214_);}
	.st174{fill-rule:evenodd;clip-rule:evenodd;fill:#181616;}
	.st175{filter:url(#Adobe_OpacityMaskFilter_7_);}
	.st176{fill:url(#SVGID_216_);}
	.st177{mask:url(#SVGID_215_);fill:url(#SVGID_217_);}
	.st178{fill:#4D9BD6;}
	.st179{fill:none;stroke:#FFFFFF;stroke-miterlimit:10;}
	.st180{fill:none;stroke:#FFFFFF;stroke-width:0.75;stroke-miterlimit:10;}
	.st181{filter:url(#Adobe_OpacityMaskFilter_8_);}
	.st182{fill:url(#SVGID_218_);}
	.st183{mask:url(#ad64d206-7b2b-4368-b62d-adee73950f0d_1_);}
	.st184{fill:url(#SVGID_219_);}
	.st185{filter:url(#Adobe_OpacityMaskFilter_9_);}
	.st186{fill:url(#SVGID_220_);}
	.st187{mask:url(#ad64d206-7b2b-4368-b62d-adee73950f0d_3_);}
	.st188{fill:url(#SVGID_221_);}
	.st189{filter:url(#Adobe_OpacityMaskFilter_10_);}
	.st190{fill:url(#SVGID_222_);}
	.st191{mask:url(#ad64d206-7b2b-4368-b62d-adee73950f0d_4_);}
	.st192{fill:url(#SVGID_223_);}
	.st193{filter:url(#Adobe_OpacityMaskFilter_11_);}
	.st194{fill:url(#SVGID_224_);}
	.st195{mask:url(#ad64d206-7b2b-4368-b62d-adee73950f0d_5_);}
	.st196{fill:url(#SVGID_225_);}
	.st197{clip-path:url(#SVGID_227_);}
	.st198{clip-path:url(#SVGID_229_);}
	.st199{clip-path:url(#SVGID_231_);}
	.st200{clip-path:url(#SVGID_233_);}
	.st201{clip-path:url(#SVGID_235_);}
	.st202{clip-path:url(#SVGID_237_);}
	.st203{clip-path:url(#SVGID_239_);}
	.st204{clip-path:url(#SVGID_241_);}
	.st205{clip-path:url(#SVGID_243_);}
	.st206{clip-path:url(#SVGID_245_);}
	.st207{clip-path:url(#SVGID_247_);}
	.st208{clip-path:url(#SVGID_249_);}
	.st209{clip-path:url(#SVGID_251_);}
	.st210{clip-path:url(#SVGID_253_);}
	.st211{fill:#FFFFFF;stroke:#2467F4;stroke-width:2;stroke-miterlimit:10.0003;}
	.st212{filter:url(#Adobe_OpacityMaskFilter_12_);}
	.st213{fill:url(#SVGID_255_);}
	.st214{fill:url(#SVGID_256_);}
	.st215{mask:url(#SVGID_254_);fill:url(#SVGID_257_);}
	.st216{filter:url(#Adobe_OpacityMaskFilter_13_);}
	.st217{fill:url(#SVGID_258_);}
	.st218{fill:url(#SVGID_259_);}
	.st219{fill:url(#SVGID_260_);}
	.st220{mask:url(#Color_7_);fill:url(#Color_8_);}
	.st221{clip-path:url(#SVGID_262_);}
	.st222{clip-path:url(#SVGID_264_);}
	.st223{clip-path:url(#SVGID_266_);}
	.st224{clip-path:url(#SVGID_268_);}
	.st225{clip-path:url(#SVGID_270_);}
	.st226{clip-path:url(#SVGID_272_);}
	.st227{clip-path:url(#SVGID_274_);}
	.st228{clip-path:url(#SVGID_276_);}
	.st229{clip-path:url(#SVGID_278_);}
	.st230{clip-path:url(#SVGID_280_);}
	.st231{clip-path:url(#SVGID_282_);}
	.st232{clip-path:url(#SVGID_284_);}
	.st233{clip-path:url(#SVGID_286_);}
	.st234{clip-path:url(#SVGID_288_);}
	.st235{clip-path:url(#SVGID_290_);}
	.st236{clip-path:url(#SVGID_292_);}
	.st237{clip-path:url(#SVGID_294_);}
	.st238{clip-path:url(#SVGID_296_);}
	.st239{clip-path:url(#SVGID_298_);}
	.st240{clip-path:url(#SVGID_300_);}
	.st241{clip-path:url(#SVGID_302_);}
	.st242{clip-path:url(#SVGID_304_);}
	.st243{clip-path:url(#SVGID_306_);}
	.st244{clip-path:url(#SVGID_308_);}
	.st245{clip-path:url(#SVGID_310_);}
	.st246{clip-path:url(#SVGID_312_);}
	.st247{clip-path:url(#SVGID_314_);}
	.st248{clip-path:url(#SVGID_316_);}
	.st249{filter:url(#Adobe_OpacityMaskFilter_14_);}
	.st250{fill:url(#SVGID_318_);}
	.st251{mask:url(#SVGID_317_);fill:url(#SVGID_319_);}
	.st252{filter:url(#Adobe_OpacityMaskFilter_15_);}
	.st253{fill:url(#SVGID_320_);}
	.st254{mask:url(#ad64d206-7b2b-4368-b62d-adee73950f0d_6_);}
	.st255{fill:url(#SVGID_321_);}
	.st256{filter:url(#Adobe_OpacityMaskFilter_16_);}
	.st257{fill:url(#SVGID_322_);}
	.st258{mask:url(#ad64d206-7b2b-4368-b62d-adee73950f0d_7_);}
	.st259{fill:url(#SVGID_323_);}
	.st260{filter:url(#Adobe_OpacityMaskFilter_17_);}
	.st261{fill:url(#SVGID_324_);}
	.st262{mask:url(#Color_9_);fill:url(#Color_10_);}
	.st263{filter:url(#Adobe_OpacityMaskFilter_18_);}
	.st264{fill:url(#SVGID_326_);}
	.st265{mask:url(#SVGID_325_);fill:url(#SVGID_327_);}
	.st266{filter:url(#Adobe_OpacityMaskFilter_19_);}
	.st267{fill:url(#SVGID_329_);}
	.st268{mask:url(#SVGID_328_);fill:url(#SVGID_330_);}
	.st269{filter:url(#Adobe_OpacityMaskFilter_20_);}
	.st270{fill:url(#SVGID_331_);}
	.st271{mask:url(#ad64d206-7b2b-4368-b62d-adee73950f0d_8_);}
	.st272{fill:url(#SVGID_332_);}
	.st273{filter:url(#Adobe_OpacityMaskFilter_21_);}
	.st274{fill:url(#SVGID_334_);}
	.st275{mask:url(#SVGID_333_);fill:url(#SVGID_335_);}
	.st276{filter:url(#Adobe_OpacityMaskFilter_22_);}
	.st277{fill:url(#SVGID_336_);}
	.st278{mask:url(#Color_11_);fill:url(#Color_12_);}
	.st279{filter:url(#Adobe_OpacityMaskFilter_23_);}
	.st280{fill:url(#SVGID_338_);}
	.st281{mask:url(#SVGID_337_);fill:url(#SVGID_339_);}
	.st282{filter:url(#Adobe_OpacityMaskFilter_24_);}
	.st283{fill:url(#SVGID_340_);}
	.st284{mask:url(#ad64d206-7b2b-4368-b62d-adee73950f0d_9_);}
	.st285{fill:url(#SVGID_341_);}
	.st286{filter:url(#Adobe_OpacityMaskFilter_25_);}
	.st287{fill:url(#SVGID_342_);}
	.st288{mask:url(#Color_13_);fill:url(#Color_14_);}
	.st289{filter:url(#Adobe_OpacityMaskFilter_26_);}
	.st290{fill:url(#SVGID_344_);}
	.st291{mask:url(#SVGID_343_);fill:url(#SVGID_345_);}
	.st292{filter:url(#Adobe_OpacityMaskFilter_27_);}
	.st293{fill:url(#SVGID_346_);}
	.st294{mask:url(#ad64d206-7b2b-4368-b62d-adee73950f0d_10_);}
	.st295{fill:url(#SVGID_347_);}
	.st296{clip-path:url(#SVGID_349_);}
	.st297{clip-path:url(#SVGID_351_);}
	.st298{clip-path:url(#SVGID_353_);}
	.st299{clip-path:url(#SVGID_355_);}
	.st300{clip-path:url(#SVGID_357_);}
	.st301{clip-path:url(#SVGID_359_);}
	.st302{clip-path:url(#SVGID_361_);}
	.st303{clip-path:url(#SVGID_363_);}
	.st304{clip-path:url(#SVGID_365_);}
	.st305{clip-path:url(#SVGID_367_);}
	.st306{clip-path:url(#SVGID_369_);}
	.st307{clip-path:url(#SVGID_371_);}
	.st308{clip-path:url(#SVGID_373_);}
	.st309{clip-path:url(#SVGID_375_);}
	.st310{clip-path:url(#SVGID_377_);}
	.st311{clip-path:url(#SVGID_379_);}
	.st312{clip-path:url(#SVGID_381_);}
	.st313{clip-path:url(#SVGID_383_);}
	.st314{clip-path:url(#SVGID_385_);}
	.st315{clip-path:url(#SVGID_387_);}
	.st316{clip-path:url(#SVGID_389_);}
	.st317{fill:#951C12;}
	.st318{fill:#BB261A;}
	.st319{fill:#77140C;}
	.st320{font-family:'IBMPlexSans-Medium';}
	.st321{font-size:14px;}
	.st322{fill:#161616;}
</style>
<g id="Lines_x5F_backgroud">
	<line class="st3" x1="399" y1="202.8" x2="338" y2="202.8"/>
	<polyline class="st3" points="444,218.5 460,202.5 444,186.5 	"/>
	<line class="st3" x1="458" y1="202.8" x2="397" y2="202.8"/>
	<line class="st3" x1="271.5" y1="202.8" x2="210.5" y2="202.8"/>
	<line class="st3" x1="145.5" y1="202.8" x2="84.5" y2="202.8"/>
	<polyline class="st3" points="256.5,218.5 272.5,202.5 256.5,186.5 	"/>
	<polyline class="st3" points="128.5,218.5 144.5,202.5 128.5,186.5 	"/>
	<line id="Dashed_lin1_62_" class="st4" x1="303.8" y1="167.8" x2="303.8" y2="133"/>
	<polyline class="st5" points="311.8,141.5 303.8,133.5 295.8,141.5 	"/>
	<polyline class="st5" points="186.3,121.5 178.3,113.5 170.3,121.5 	"/>
	<polyline class="st5" points="170.3,157.7 178.3,165.7 186.3,157.7 	"/>
	<line id="Dashed_line2_25_" class="st4" x1="213.5" y1="55.3" x2="273.5" y2="55.3"/>
	<line id="Dashed_lin1_57_" class="st4" x1="178.3" y1="157.8" x2="178.3" y2="121.8"/>
	<line class="st3" x1="585.5" y1="202.8" x2="524.5" y2="202.8"/>
	<polyline class="st3" points="570.5,218.5 586.5,202.5 570.5,186.5 	"/>
</g>
<g id="Icons">
	<g id="CI_Pipeline_7_">
		<circle class="st103" cx="305.4" cy="201.7" r="32"/>
		<g id="CI_x5F_CD_x5F_icon_29_">
			<g id="e18fe981-7760-4f0f-92d6-295e583f5df5_29_">
				<g>
					<path class="st104" d="M318.6,204c-1.5,6.3-6.8,10.9-13.4,10.9c-4.1,0.1-8-1.8-10.4-5.2l7.2-7.4l0.8,0.8l-0.8-0.8l0,0l1.1,1.3
						l1.7-5.9l-5.8,1.7l1.1,1.1l-1.7,2l-4.9,5c-1-1.7-1.6-3.5-1.7-5.4l-2.1-3.1c-0.1,0.7-0.2,1.5-0.1,2.2c0,8.9,7.3,16.3,16.1,16.3
						c6.9-0.1,13-4.4,15.2-10.9L318.6,204z"/>
					<polyline class="st105" points="293.3,207.5 300.1,200.5 299.1,199.4 304.8,197.7 294.8,207.6 					"/>
				</g>
				<g>
					<path class="st105" d="M305.2,217c6.9-0.1,13-4.4,15.2-10.9l-1.1-1.3c-1.9,7.8-9.8,12.5-17.6,10.6c-6.7-1.6-11.3-7.7-11.1-14.5
						v-0.7l-0.8-1.5c-0.1,0.7-0.2,1.5-0.1,2.2c-0.3,8.6,6.6,15.8,15.2,16.1C304.9,217,305,217,305.2,217z"/>
					<line class="st10" x1="293.3" y1="207.6" x2="294.8" y2="208.2"/>
				</g>
			</g>
			<g id="b4a44eff-a6ab-4c1f-a314-3899682236f1_29_">
				<g>
					<path class="st106" d="M292.2,198.8c1.5-6.3,6.8-10.9,13.4-10.9c4.1-0.1,8,1.8,10.4,5.2l-7.2,7.4l-0.6-0.8l0.8,0.8l0,0
						l-1.3-1.3l-1.7,5.9l5.8-1.7l-1.1-1.1l2-2l4.9-5c0.8,1.7,1.4,3.6,1.5,5.4l2.1,3.1c0.1-0.6,0.2-1.3,0.1-2
						c0-8.9-7.2-16.3-16.1-16.3c-6.8,0.1-12.8,4.5-14.9,10.9L292.2,198.8z"/>
					<polyline class="st107" points="316.1,193.1 308.8,200.5 307.8,199.3 306.1,205.1 315.8,195.1 					"/>
				</g>
				<g>
					<path class="st107" d="M305,185.6c-6.9,0.1-13,4.4-15.2,10.9l1.1,1.3c1.9-7.8,9.8-12.5,17.6-10.6c6.7,1.6,11.3,7.7,11.1,14.5
						v0.7l1.1,1.5c0.1-0.6,0.2-1.3,0.1-2C320.7,192.7,313.7,185.6,305,185.6z"/>
					<line class="st10" x1="317.5" y1="195.1" x2="316.1" y2="194.6"/>
				</g>
			</g>
		</g>
	</g>
	<g id="DevOps_x5F_insights_26_">
		<g id="CRA_x5F_icon_8_">
			<circle class="st6" cx="305.4" cy="53.3" r="32"/>
		</g>
	</g>
	<g id="Kubernetes_4_">
		<circle class="st6" cx="492.8" cy="200.9" r="32"/>
		<g id="PyxH9x.tif">
			
				<image style="overflow:visible;" width="182" height="195" xlink:href="B0322A01A3406DFF.png"  transform="matrix(0.2059 0 0 0.2059 474.0748 180.8546)">
			</image>
		</g>
	</g>
	<g id="Issue_Tracker_14_">
		<circle class="st6" cx="51.6" cy="201.7" r="32"/>
		<path class="st174" d="M51.6,185.8c-9,0-16.3,7.3-16.3,16.3c0,7.2,4.7,13.3,11.1,15.5c0.8,0.1,1.1-0.4,1.1-0.8c0-0.4,0-1.4,0-2.8
			c-4.5,1-5.5-2.2-5.5-2.2c-0.7-1.9-1.8-2.4-1.8-2.4c-1.5-1,0.1-1,0.1-1c1.6,0.1,2.5,1.7,2.5,1.7c1.5,2.5,3.8,1.8,4.7,1.4
			c0.1-1.1,0.6-1.8,1-2.2c-3.6-0.4-7.4-1.8-7.4-8.1c0-1.8,0.6-3.2,1.7-4.4c-0.2-0.4-0.7-2.1,0.2-4.3c0,0,1.4-0.4,4.5,1.7
			c1.3-0.4,2.7-0.5,4.1-0.5s2.8,0.2,4.1,0.5c3.1-2.1,4.5-1.7,4.5-1.7c0.9,2.2,0.3,3.9,0.2,4.3c1,1.1,1.7,2.6,1.7,4.4
			c0,6.3-3.8,7.6-7.4,8c0.6,0.5,1.1,1.5,1.1,3c0,2.2,0,3.9,0,4.5c0,0.4,0.3,0.9,1.1,0.8c6.5-2.2,11.1-8.3,11.1-15.5
			C67.9,193,60.6,185.8,51.6,185.8z"/>
	</g>
	<g id="PR_Pipeline_6_">
		<circle class="st6" cx="178.3" cy="53.6" r="32"/>
		<g id="CI_x5F_CD_x5F_icon_7_">
			<g id="e18fe981-7760-4f0f-92d6-295e583f5df5_7_">
				<g>
					<path class="st104" d="M191.3,55.7c-1.5,6.3-6.8,10.9-13.4,10.9c-4.1,0.1-8-1.8-10.4-5.2l7.2-7.4l0.8,0.8l-0.8-0.8l0,0l1.1,1.3
						l1.7-5.9l-5.8,1.7l1.1,1.1l-1.7,2l-4.9,5c-1-1.7-1.6-3.5-1.7-5.4l-2.1-3.1c-0.1,0.7-0.2,1.5-0.1,2.2c0,8.9,7.3,16.3,16.1,16.3
						c6.9-0.1,13-4.4,15.2-10.9L191.3,55.7z"/>
					<polyline class="st105" points="166,59.2 172.7,52.2 171.7,51.1 177.5,49.4 167.5,59.3 					"/>
				</g>
				<g>
					<path class="st105" d="M177.1,68.8c6.9-0.1,13-4.4,15.2-10.9l-1.1-1.3c-1.9,7.8-9.8,12.5-17.6,10.6
						c-6.7-1.6-11.3-7.7-11.1-14.5V52l-0.8-1.5c-0.1,0.7-0.2,1.5-0.1,2.2c-0.3,8.6,6.6,15.8,15.2,16.1
						C176.8,68.8,176.9,68.8,177.1,68.8z"/>
					<line class="st10" x1="166" y1="59.3" x2="167.5" y2="59.9"/>
				</g>
			</g>
			<g id="b4a44eff-a6ab-4c1f-a314-3899682236f1_7_">
				<g>
					<path class="st106" d="M164.8,50.5c1.5-6.3,6.8-10.9,13.4-10.9c4.1-0.1,8,1.8,10.4,5.2l-7.2,7.4l-0.6-0.8l0.8,0.8l0,0l-1.3-1.3
						l-1.7,5.9l5.8-1.7l-1.1-1.1l2-2l4.9-5c0.8,1.7,1.4,3.6,1.5,5.4l2.1,3.1c0.1-0.6,0.2-1.3,0.1-2c0-8.9-7.2-16.3-16.1-16.3
						c-6.8,0.1-12.8,4.5-14.9,10.9L164.8,50.5z"/>
					<polyline class="st107" points="188.8,44.8 181.5,52.2 180.5,51 178.8,56.8 188.5,46.8 					"/>
				</g>
				<g>
					<path class="st107" d="M177.9,37.3c-6.9,0.1-13,4.4-15.2,10.9l1.1,1.3c1.9-7.8,9.8-12.5,17.6-10.6c6.7,1.6,11.3,7.7,11.1,14.5
						v0.7l1.1,1.5c0.1-0.6,0.2-1.3,0.1-2C193.6,44.4,186.6,37.3,177.9,37.3z"/>
					<line class="st10" x1="190.2" y1="46.8" x2="188.8" y2="46.3"/>
				</g>
			</g>
		</g>
	</g>
	<g id="cra_1_">
		<rect x="297.5" y="47.8" width="8" height="2"/>
		<rect x="297.5" y="43.8" width="12" height="2"/>
		<rect x="297.5" y="39.8" width="12" height="2"/>
		<path d="M294.3,65.8l5.6-10l7.4,6.5c0.5,0.4,1.1,0.6,1.7,0.5s1.1-0.5,1.4-1l7-10.4l-1.7-1.1l-7,10.4l-0.1,0.1l-7.4-6.5
			c-0.5-0.4-1.1-0.6-1.7-0.5s-1.1,0.5-1.4,1l-4.6,8.1V39.8h-2v26c0,1.1,0.9,2,2,2h26v-2H294.3z"/>
		<rect id="_x3C_Transparent_Rectangle_x3E__7_" x="289.5" y="37.8" class="st10" width="32" height="32"/>
	</g>
	<g id="Issue_Tracker_13_">
		<circle class="st6" cx="178.3" cy="201.7" r="32"/>
		<path class="st174" d="M178.3,185.8c-9,0-16.3,7.3-16.3,16.3c0,7.2,4.7,13.3,11.1,15.5c0.8,0.1,1.1-0.4,1.1-0.8c0-0.4,0-1.4,0-2.8
			c-4.5,1-5.5-2.2-5.5-2.2c-0.7-1.9-1.8-2.4-1.8-2.4c-1.5-1,0.1-1,0.1-1c1.6,0.1,2.5,1.7,2.5,1.7c1.5,2.5,3.8,1.8,4.7,1.4
			c0.1-1.1,0.6-1.8,1-2.2c-3.6-0.4-7.4-1.8-7.4-8.1c0-1.8,0.6-3.2,1.7-4.4c-0.2-0.4-0.7-2.1,0.2-4.3c0,0,1.4-0.4,4.5,1.7
			c1.3-0.4,2.7-0.5,4.1-0.5c1.4,0,2.8,0.2,4.1,0.5c3.1-2.1,4.5-1.7,4.5-1.7c0.9,2.2,0.3,3.9,0.2,4.3c1,1.1,1.7,2.6,1.7,4.4
			c0,6.3-3.8,7.6-7.4,8c0.6,0.5,1.1,1.5,1.1,3c0,2.2,0,3.9,0,4.5c0,0.4,0.3,0.9,1.1,0.8c6.5-2.2,11.1-8.3,11.1-15.5
			C194.6,193,187.3,185.8,178.3,185.8z"/>
	</g>
	<path class="st6" d="M690.3,232.9c17.7,0,32-14.3,32-32s-14.3-32-32-32s-32,14.3-32,32S672.6,232.9,690.3,232.9z"/>
	<g id="Artboard">
		<path id="shadow3" class="st317" d="M683,198.9l-5.5,2c0.1,0.9,0.2,1.7,0.4,2.6l5.2-1.9C682.9,200.7,682.9,199.8,683,198.9
			 M707.3,192.9c-0.4-0.8-0.8-1.5-1.4-2.3l-5.5,2c0.6,0.6,1.2,1.4,1.6,2.1L707.3,192.9z"/>
		<path id="top" class="st318" d="M695.3,191.5c1.1,0.5,2.1,1.3,3,2.2l5.5-2c-5-7.2-14.8-8.9-21.9-3.8c-4.5,3.3-7,8.7-6.5,14.3
			l5.5-2.1c0.4-5.7,5.3-10,10.9-9.6C693,190.7,694.2,191,695.3,191.5 M678.4,203.9l-5.2,1.9c0.5,1.9,1.3,3.8,2.5,5.4l5.5-2
			C679.7,207.7,678.8,205.9,678.4,203.9"/>
		<path id="bottom" class="st318" d="M701.1,201.9c-0.1,1.2-0.4,2.4-0.9,3.6c-2.4,5.2-8.4,7.4-13.6,5c-1.1-0.5-2.1-1.2-3-2.1l-5.5,2
			c1.5,2.2,3.7,4,6.1,5.2c7.9,3.7,17.2,0.3,20.9-7.7c1.1-2.5,1.6-5.2,1.4-7.9L701.1,201.9z"/>
		<path id="right_side" class="st318" d="M702.8,194.9l-5.5,1.9c1,1.8,1.5,3.8,1.4,5.9l5.8-2C704.3,198.7,703.7,196.7,702.8,194.9"
			/>
		<path id="shadow2" class="st319" d="M683.5,200.1c0-0.4,0-0.7,0-1.1l-5.4,2c0,0.4,0.1,0.7,0.1,1.1L683.5,200.1z M706.6,191.4
			c-0.2-0.3-0.3-0.6-0.5-0.8l-5.4,2c0.2,0.2,0.5,0.5,0.7,0.8L706.6,191.4z"/>
		<path id="shadow" class="st317" d="M678.2,210.2c0.4,0.6,0.9,1.2,1.4,1.7l5.9-2.2c-0.7-0.4-1.3-0.9-1.9-1.5L678.2,210.2z
			 M706.6,199.9l-5.5,2c-0.1,0.8-0.2,1.6-0.5,2.4l5.9-2.2C706.6,201.3,706.6,200.6,706.6,199.9"/>
	</g>
	<path class="st6" d="M654.3,232.9c17.7,0,32-14.3,32-32s-14.3-32-32-32s-32,14.3-32,32S636.6,232.9,654.3,232.9z"/>
	<g id="Artboard_1_">
		<path id="shadow3_1_" class="st317" d="M647,198.9l-5.5,2c0.1,0.9,0.2,1.7,0.4,2.6l5.2-1.9C646.9,200.7,646.9,199.8,647,198.9
			 M671.3,192.9c-0.4-0.8-0.8-1.5-1.4-2.3l-5.5,2c0.6,0.6,1.2,1.4,1.6,2.1L671.3,192.9z"/>
		<path id="top_1_" class="st318" d="M659.3,191.5c1.1,0.5,2.1,1.3,3,2.2l5.5-2c-5-7.2-14.8-8.9-21.9-3.8c-4.5,3.3-7,8.7-6.5,14.3
			l5.5-2.1c0.4-5.7,5.3-10,10.9-9.6C657,190.7,658.2,191,659.3,191.5 M642.4,203.9l-5.2,1.9c0.5,1.9,1.3,3.8,2.5,5.4l5.5-2
			C643.7,207.7,642.8,205.9,642.4,203.9"/>
		<path id="bottom_1_" class="st318" d="M665.1,201.9c-0.1,1.2-0.4,2.4-0.9,3.6c-2.4,5.2-8.4,7.4-13.6,5c-1.1-0.5-2.1-1.2-3-2.1
			l-5.5,2c1.5,2.2,3.7,4,6.1,5.2c7.9,3.7,17.2,0.3,20.9-7.7c1.1-2.5,1.6-5.2,1.4-7.9L665.1,201.9z"/>
		<path id="right_side_1_" class="st318" d="M666.8,194.9l-5.5,1.9c1,1.8,1.5,3.8,1.4,5.9l5.8-2
			C668.3,198.7,667.7,196.7,666.8,194.9"/>
		<path id="shadow2_1_" class="st319" d="M647.5,200.1c0-0.4,0-0.7,0-1.1l-5.4,2c0,0.4,0.1,0.7,0.1,1.1L647.5,200.1z M670.6,191.4
			c-0.2-0.3-0.3-0.6-0.5-0.8l-5.4,2c0.2,0.2,0.5,0.5,0.7,0.8L670.6,191.4z"/>
		<path id="shadow_1_" class="st317" d="M642.2,210.2c0.4,0.6,0.9,1.2,1.4,1.7l5.9-2.2c-0.7-0.4-1.3-0.9-1.9-1.5L642.2,210.2z
			 M670.6,199.9l-5.5,2c-0.1,0.8-0.2,1.6-0.5,2.4l5.9-2.2C670.6,201.3,670.6,200.6,670.6,199.9"/>
	</g>
	<path class="st6" d="M618.3,232.9c17.7,0,32-14.3,32-32s-14.3-32-32-32s-32,14.3-32,32S600.6,232.9,618.3,232.9z"/>
	<g id="Artboard_2_">
		<path id="shadow3_2_" class="st317" d="M611,198.9l-5.5,2c0.1,0.9,0.2,1.7,0.4,2.6l5.2-1.9C610.9,200.7,610.9,199.8,611,198.9
			 M635.3,192.9c-0.4-0.8-0.8-1.5-1.4-2.3l-5.5,2c0.6,0.6,1.2,1.4,1.6,2.1L635.3,192.9z"/>
		<path id="top_2_" class="st318" d="M623.3,191.5c1.1,0.5,2.1,1.3,3,2.2l5.5-2c-5-7.2-14.8-8.9-21.9-3.8c-4.5,3.3-7,8.7-6.5,14.3
			l5.5-2.1c0.4-5.7,5.3-10,10.9-9.6C621,190.7,622.2,191,623.3,191.5 M606.4,203.9l-5.2,1.9c0.5,1.9,1.3,3.8,2.5,5.4l5.5-2
			C607.7,207.7,606.8,205.9,606.4,203.9"/>
		<path id="bottom_2_" class="st318" d="M629.1,201.9c-0.1,1.2-0.4,2.4-0.9,3.6c-2.4,5.2-8.4,7.4-13.6,5c-1.1-0.5-2.1-1.2-3-2.1
			l-5.5,2c1.5,2.2,3.7,4,6.1,5.2c7.9,3.7,17.2,0.3,20.9-7.7c1.1-2.5,1.6-5.2,1.4-7.9L629.1,201.9z"/>
		<path id="right_side_2_" class="st318" d="M630.8,194.9l-5.5,1.9c1,1.8,1.5,3.8,1.4,5.9l5.8-2
			C632.3,198.7,631.7,196.7,630.8,194.9"/>
		<path id="shadow2_2_" class="st319" d="M611.5,200.1c0-0.4,0-0.7,0-1.1l-5.4,2c0,0.4,0.1,0.7,0.1,1.1L611.5,200.1z M634.6,191.4
			c-0.2-0.3-0.3-0.6-0.5-0.8l-5.4,2c0.2,0.2,0.5,0.5,0.7,0.8L634.6,191.4z"/>
		<path id="shadow_2_" class="st317" d="M606.2,210.2c0.4,0.6,0.9,1.2,1.4,1.7l5.9-2.2c-0.7-0.4-1.3-0.9-1.9-1.5L606.2,210.2z
			 M634.6,199.9l-5.5,2c-0.1,0.8-0.2,1.6-0.5,2.4l5.9-2.2C634.6,201.3,634.6,200.6,634.6,199.9"/>
	</g>
</g>
<g id="Text">
	<text transform="matrix(0.9993 0 0 1 141.6304 106.189)" class="st320 st321">PR Pipeline</text>
	<text transform="matrix(0.9993 0 0 1 33.9653 251.0915)" class="st320 st321">Issue</text>
	<text transform="matrix(0.9993 0 0 1 27.2148 267.8913)" class="st320 st321">Tracker</text>
	<text transform="matrix(0.9993 0 0 1 273.6187 104.9625)" class="st322 st320 st321">Code Risk</text>
	<text transform="matrix(0.9993 0 0 1 276.4316 123.9202)" class="st322 st320 st321">Analyzer</text>
	<text transform="matrix(0.9993 0 0 1 268.4697 251.092)" class="st320 st321">CD Pipeline</text>
	<text transform="matrix(0.9993 0 0 1 371.2329 195.8761)" class="st320 st321">Trigger </text>
	<text transform="matrix(0.9993 0 0 1 155.9912 251.0922)" class="st320 st321">Source</text>
	<text transform="matrix(0.9993 0 0 1 161.7554 267.892)" class="st320 st321">Repo</text>
	<text transform="matrix(0.9993 0 0 1 466.061 251.0499)" class="st320 st321">Satellite</text>
	<text transform="matrix(0.9993 0 0 1 472.4131 267.8497)" class="st320 st321">Config</text>
	<text transform="matrix(0.9993 0 0 1 618.0457 251.0499)" class="st320 st321">OpenShift</text>
	<text transform="matrix(0.9993 0 0 1 606.8474 267.8497)" class="st320 st321">Cluster group</text>
</g>
</svg>
